<svg id="Layer_1" data-name="Layer 1" xmlns="http://www.w3.org/2000/svg" xmlns:xlink="http://www.w3.org/1999/xlink" viewBox="0 0 428.71 86.82"><defs><style>.cls-1{fill:url(#linear-gradient);}.cls-2{fill:url(#linear-gradient-2);}.cls-3{fill:url(#linear-gradient-3);}.cls-4{fill:url(#linear-gradient-4);}.cls-5{fill:url(#linear-gradient-5);}.cls-6{fill:url(#linear-gradient-6);}.cls-7{fill:url(#linear-gradient-7);}.cls-8{fill:url(#linear-gradient-8);}.cls-9{fill:url(#linear-gradient-9);}.cls-10{fill:url(#linear-gradient-10);}.cls-11{fill:url(#linear-gradient-11);}.cls-12{fill:url(#linear-gradient-12);}.cls-13{fill:url(#linear-gradient-13);}.cls-14{fill:url(#linear-gradient-14);}.cls-15{fill:url(#linear-gradient-15);}.cls-16{fill:url(#linear-gradient-16);}.cls-17{fill:url(#linear-gradient-17);}.cls-18{fill:url(#linear-gradient-18);}.cls-19{fill:url(#linear-gradient-19);}.cls-20{fill:url(#linear-gradient-20);}.cls-21{fill:url(#linear-gradient-21);}.cls-22{fill:url(#linear-gradient-22);}.cls-23{fill:url(#linear-gradient-23);}.cls-24{fill:url(#linear-gradient-24);}.cls-25{fill:url(#linear-gradient-25);}.cls-26{fill:url(#linear-gradient-26);}.cls-27{fill:url(#linear-gradient-27);}.cls-28{fill:url(#linear-gradient-28);}</style><linearGradient id="linear-gradient" x1="61.33" y1="89.37" x2="61.33" y2="146.09" gradientUnits="userSpaceOnUse"><stop offset="0" stop-color="#ffde17"/><stop offset="1" stop-color="#ed1c24"/></linearGradient><linearGradient id="linear-gradient-2" x1="105.9" y1="89.37" x2="105.9" y2="143.01" xlink:href="#linear-gradient"/><linearGradient id="linear-gradient-3" x1="142.17" y1="88.29" x2="142.17" y2="146.23" xlink:href="#linear-gradient"/><linearGradient id="linear-gradient-4" x1="175.66" y1="89.03" x2="175.66" y2="147.84" xlink:href="#linear-gradient"/><linearGradient id="linear-gradient-5" x1="212.39" y1="89.23" x2="212.39" y2="149.58" xlink:href="#linear-gradient"/><linearGradient id="linear-gradient-6" x1="255.96" y1="89.31" x2="255.96" y2="141.54" xlink:href="#linear-gradient"/><linearGradient id="linear-gradient-7" x1="300.25" y1="88.29" x2="300.25" y2="146.23" xlink:href="#linear-gradient"/><linearGradient id="linear-gradient-8" x1="359.39" y1="88.21" x2="359.39" y2="144.21" xlink:href="#linear-gradient"/><linearGradient id="linear-gradient-9" x1="397.33" y1="88.51" x2="397.33" y2="141.54" xlink:href="#linear-gradient"/><linearGradient id="linear-gradient-10" x1="441.62" y1="88.21" x2="441.62" y2="144.21" xlink:href="#linear-gradient"/><linearGradient id="linear-gradient-11" x1="159.21" y1="157.84" x2="159.21" y2="173.19" xlink:href="#linear-gradient"/><linearGradient id="linear-gradient-12" x1="171.25" y1="157.53" x2="171.25" y2="173.72" xlink:href="#linear-gradient"/><linearGradient id="linear-gradient-13" x1="180.17" y1="157.83" x2="180.17" y2="175.03" xlink:href="#linear-gradient"/><linearGradient id="linear-gradient-14" x1="190.21" y1="157.8" x2="190.21" y2="173.42" xlink:href="#linear-gradient"/><linearGradient id="linear-gradient-15" x1="200.04" y1="157.83" x2="200.04" y2="175.03" xlink:href="#linear-gradient"/><linearGradient id="linear-gradient-16" x1="209.21" y1="157.84" x2="209.21" y2="173.19" xlink:href="#linear-gradient"/><linearGradient id="linear-gradient-17" x1="221.32" y1="157.84" x2="221.32" y2="173.19" xlink:href="#linear-gradient"/><linearGradient id="linear-gradient-18" x1="230.55" y1="157.83" x2="230.55" y2="175.03" xlink:href="#linear-gradient"/><linearGradient id="linear-gradient-19" x1="238.77" y1="157.9" x2="238.77" y2="173.19" xlink:href="#linear-gradient"/><linearGradient id="linear-gradient-20" x1="251.24" y1="157.91" x2="251.24" y2="173.19" xlink:href="#linear-gradient"/><linearGradient id="linear-gradient-21" x1="263.71" y1="157.93" x2="263.71" y2="174.52" xlink:href="#linear-gradient"/><linearGradient id="linear-gradient-22" x1="281.78" y1="157.91" x2="281.78" y2="173.19" xlink:href="#linear-gradient"/><linearGradient id="linear-gradient-23" x1="294.84" y1="157.83" x2="294.84" y2="173.19" xlink:href="#linear-gradient"/><linearGradient id="linear-gradient-24" x1="304.53" y1="157.83" x2="304.53" y2="175.03" xlink:href="#linear-gradient"/><linearGradient id="linear-gradient-25" x1="313.85" y1="157.93" x2="313.85" y2="173.62" xlink:href="#linear-gradient"/><linearGradient id="linear-gradient-26" x1="320.55" y1="157.83" x2="320.55" y2="175.03" xlink:href="#linear-gradient"/><linearGradient id="linear-gradient-27" x1="329.7" y1="157.68" x2="329.7" y2="173.19" xlink:href="#linear-gradient"/><linearGradient id="linear-gradient-28" x1="341.69" y1="157.9" x2="341.69" y2="173.19" xlink:href="#linear-gradient"/></defs><path class="cls-1" d="M71,90.2v-.83h.78q2.55,0,9,4.16l-.16,0L79.9,94q.72,0,.72-2.13v-1l1-1a25.64,25.64,0,0,1,2,4.41v1.3c0,1.37.32,2,1,2v.89q-1.2,1.83-10.62,5a17.59,17.59,0,0,0-3,1.74h-1.6c1.38-1.75,2-2.4,2-1.94a16.39,16.39,0,0,1-2.13.06c2.2-2,3.71-3.11,4.52-3.35v.83h.66a86.19,86.19,0,0,0-14.08,2.69,33.72,33.72,0,0,0-4.55,1.27,5,5,0,0,1-2.8,1.91v-1l.47-1.85v.5h1c-1.28,2.31-1.91,3.77-1.91,4.38l.11.83-1.06,1a4.14,4.14,0,0,1,1.92.78l4.29.19,17.39-.27a85.35,85.35,0,0,1,11.78.94V113q-1.63,1.53-7.76,6.24l.36-.45h-1.3l2.55-.83V119q-9.3,8.82-12.29,10.32Q60,135,41.05,143l-5.4,3.1,5.9-7.26A9.06,9.06,0,0,0,43,137.41v1h.56a20.1,20.1,0,0,0-3.86,3.08v-1.72a18.09,18.09,0,0,1,4.58-4.16q1.58-1.38,20.37-15.86c.82-.79,1.22-1.1,1.22-.91H66l-2.11-.17c0-.29-.19-.47-.56-.53q-2.21-.89-12-1.63a44.41,44.41,0,0,1-7.12-2.08L41.64,112a66.42,66.42,0,0,0,3.13-10.12l.64-1.74c0-.13-.38-.2-1.14-.2V99q2.65-1.53,14.86-5.55,8.1-2.55,13-2.55C72.16,91.2,71.78,91,71,90.2Zm11.54,3.71v-1h-1.2v1Z" transform="translate(-35.65 -88.21)"/><path class="cls-2" d="M123.2,89.37q4.83,8.5,5.74,10.59l-.53.52h-.55c-1.65-.53-5-1-10.2-1.33L116,99.1c-.9,1.68-2.35,4.69-4.32,9-.76,1.18-1.15,1.81-1.17,1.88.28,0,.42.41.42,1.22v0h-1l4.65-2.3.59,1q0,1.4-6.71,10.45c-.61,1.39-2.28,3.43-5,6.13s-4.42,4.79-4.94,5.93L90.87,143v-2.3A125.54,125.54,0,0,0,96.11,127q3.36-9.37,3.36-12.73L97.25,117H96.09v-.64q0-2.27,5-12l.61-2H99.86l-2.66-.11a63,63,0,0,0-14.34,1.63q.81-1.41,5.44-4.21a70.27,70.27,0,0,1,11-6.27v.78H100l-5,1.14V94.05L102.44,92a1.6,1.6,0,0,1-1,1.69v-.83h-.59Q113,90.42,118,90.42h.44c1,.24,1.47.45,1.47.64h-1.27V89.53h1.27l1.72,2.75C121.84,90.34,122.37,89.37,123.2,89.37Z" transform="translate(-35.65 -88.21)"/><path class="cls-3" d="M128.39,88.29c4,.73,8.8,1.43,14.44,2.07q9.6,1.81,10.95,2.58,1,.84,6.1,1.81c1.87.24,2.8.8,2.8,1.69l-.58.11v-.72l5.65,1.85v.64l-6.87,7.1q-13.62,11.14-20.49,12.34v-.59q1.94,0,11.92,9.46a3.26,3.26,0,0,1,.83,2.08H152c-1.36-1.24-1.94-1.86-1.71-1.86v-.58q2.69,4.61,12.75,18.46v1q-1.47-.36-23.21-12.75l-4.38-2.72v-1l2.78-.22a83,83,0,0,1-8-8.85h.61c-.72.72-1.94,3.26-3.66,7.6q-8.5,18.36-9.67,18.41h-.94q2.74-16.6,3.52-20.29v.52h1.11c-.65,2-1.27,3.3-1.86,3.8h-1.17q1.14-11.5,2.44-14.67a99.83,99.83,0,0,0,3.88-14.19q1.92-4,1.92-5.05a13,13,0,0,1-1.94-1.63v-.64l1.74-.58v.8h-.5l-2.13-.11V93.11l4.88-1.66V92l-3.61-1.16V89.67l6.63.2c0,.33-1,.24-3.1-.28Zm2.49,29.88-1.44,1.11.28.33A6.83,6.83,0,0,0,130.88,118.17Zm16.61-15.91v-1.61l.33,2.16-.8.61q-1.62-1-8.38-1.74-3.66,6.6-5.71,10.86a25.54,25.54,0,0,0,6.19-1.88,44.22,44.22,0,0,1,6.43-3.36v1.14c-.46.54-.7.55-.7,0,2.87-2.09,4.38-3.48,4.55-4.16Z" transform="translate(-35.65 -88.21)"/><path class="cls-4" d="M181.48,89h1.63a6.39,6.39,0,0,1,3.5,2.86l1.19,1.94v.28a5.54,5.54,0,0,1-1.44,3.6h-1.47l1.25-1.16H187l.55.55c0,.74-.65,2.12-2,4.13a29.66,29.66,0,0,1-4.18,8.35q-5.19,8.48-5.49,12.78v-.5h-1.06l1.36-2.41h1.5a99.52,99.52,0,0,1-5.68,16q-4.58,10.35-7.41,12.37l-.77-.81q.78-1.58,3-14.72v-.75c0,.08-.46,0-1.38-.25q.91-1.83,1.86-13.28l1.94-8.76a3.38,3.38,0,0,1,1.05-2.85l-.19-4.72a6.56,6.56,0,0,1,2.41-1.13v.66c-4.7-1.22-7.68-1.83-9-1.83v-.8c.22-.32,2.38-1.26,6.46-2.83v.83h-3.41l-.55-.55v-.31c0-.64,1.19-1.12,3.57-1.41v.91h.34l-3.91.39V94.41a80.43,80.43,0,0,1,12.47-2.49,16.61,16.61,0,0,0,4.66-1.33V91Zm-10.32,6.13v-1h-1v1Zm5.58,22.65h1.44v.75c0,.57-.59,1.11-1.78,1.61v-1.08Z" transform="translate(-35.65 -88.21)"/><path class="cls-5" d="M187.41,143.68v2.83c-.42,2.05-.95,3.07-1.58,3.07H185v-.69C185.08,148.13,185.88,146.4,187.41,143.68Zm8.71-53.45v-1q8.81,1.93,11.84,2.27l.36.5v.8l-1.58.5v-.83h.19l3.38.11v.81a27.28,27.28,0,0,0-2.77,3.21q0,1.86-3.33,7.24-4.12,9.21-4.13,10a80.88,80.88,0,0,1,12.81-7.71,42.84,42.84,0,0,0,6.63-4.88l-.2.06c0-.87.63-1.57,1.89-2.08v.27q-3-4.38-3-6.07l3.08,2.28V97a51,51,0,0,0-3.61-4.55h1.58l6,2.47a67.75,67.75,0,0,1,7.21,3.88l.11,0c2,.67,3,1.35,3,2l-.47.48h-.45a4.43,4.43,0,0,1-2-.89h1.61a25.48,25.48,0,0,1,2.88,1.5l2.61,2.69v.85h-1.11a27.61,27.61,0,0,0-3.69-.88h.64v-.78a3.32,3.32,0,0,1,1.08.94v.61q-28.37,11.15-32.05,12.45l-.47.17v-.5q7.76,6,9.73,6.68a11,11,0,0,1,3.85,3v1.71a12.87,12.87,0,0,0-5.21-2.66,19.53,19.53,0,0,1,4.05,4.74q7,10.49,10.48,16.47v1.17a186.62,186.62,0,0,1-19.16-10.4,55.84,55.84,0,0,1-7-5v-1l4.76.55a50,50,0,0,1-6.23-6.65q-1.28-1.41-.72-1.41-2.14,4.19-7.8,14.11L187.47,146h-1.25v-.7a117.16,117.16,0,0,1,2.08-12.55,59.16,59.16,0,0,0,2.27-13.87v.36h1.31c0,.34-.37.5-1.11.5a12,12,0,0,1-2.83-2.13,30.31,30.31,0,0,0,1.86-8.54q0-1.89,2.46-10.09l.31-2.14c0-1.33-.23-2-.69-2l-.61-.78v-.64l2.38-.77v.77c-1.46-.07-2.19-.38-2.19-.91V92l5.27-1.47V91Z" transform="translate(-35.65 -88.21)"/><path class="cls-6" d="M233.88,138.58v2l-.53,1h-1.3v-.8Zm46-49.27v1.3q-.89,0-5.71,3.66l-3.8,2.5h-1l-.25-.86h1.16c0,.52-.57.78-1.72.78a4.91,4.91,0,0,1-1.27.74c0,.39-1.08.91-3.25,1.56h-.44l-.2-.14L257.55,100l-4.9,8.84h-1l17-5.1-16.88,6.88v-.81H251a133.84,133.84,0,0,1,14.22-2l3.16-.22v1.08L247,119.75l-1.22,3v-.56h-1.3s.72-.69,2.16-2h1.08q0,.92-3.19,7.23h-1q22.62-4.38,28.08-6.09c0-.15.64-.36,1.86-.61v1a36.09,36.09,0,0,1-7.46,4.74l-3.85,2-.33.36v-1l3.32-1.44,1.22-.19a1.47,1.47,0,0,1,1.36,1,15.1,15.1,0,0,1-5.27,2.8q-15.57,4.8-20,6.93-6.74,2.42-8.68,3.75h-1v-.72a38.26,38.26,0,0,0,1.61-8.38l3.08-11.28.58-4.6c.29,0,.57-.85.83-2.55v.14h1.3v.16H238.4A45.38,45.38,0,0,0,240.5,102h-1.85V100.9l1.94-.64v-.94c-2.41.24-4.67.36-6.8.36l-.11-.08h-.91l5-8.38h1c-.63,0-.94-.3-.94-.91l.44-.44h1.47c0,.16-.1.25-.3.25l2.33.16,6.43-.25,7.51.17,8.9-.45,5.82.28a9.92,9.92,0,0,0,2.94-.52Zm-8.37.11H273v1.19l-1.25.17H270V89.56Z" transform="translate(-35.65 -88.21)"/><path class="cls-7" d="M286.47,88.29c4,.73,8.81,1.43,14.45,2.07q9.58,1.81,10.95,2.58,1,.84,6.1,1.81c1.86.24,2.8.8,2.8,1.69l-.59.11v-.72l5.66,1.85v.64l-6.87,7.1q-13.62,11.14-20.49,12.34v-.59q1.93,0,11.92,9.46a3.31,3.31,0,0,1,.83,2.08h-1.11c-1.37-1.24-1.94-1.86-1.72-1.86v-.58q2.69,4.61,12.76,18.46v1Q319.69,145.37,298,133l-4.38-2.72v-1l2.77-.22a81.64,81.64,0,0,1-8-8.85h.61c-.72.72-1.94,3.26-3.66,7.6q-8.5,18.36-9.68,18.41h-.94q2.74-16.6,3.52-20.29v.52h1.11c-.65,2-1.27,3.3-1.86,3.8h-1.16q1.14-11.5,2.44-14.67a101.2,101.2,0,0,0,3.88-14.19c1.28-2.68,1.91-4.36,1.91-5.05a13.53,13.53,0,0,1-1.94-1.63v-.64l1.75-.58v.8h-.5l-2.13-.11V93.11l4.87-1.66V92L283,90.81V89.67l6.63.2c0,.33-1,.24-3.11-.28Zm2.5,29.88-1.44,1.11.27.33A6.74,6.74,0,0,0,289,118.17Zm16.6-15.91v-1.61l.34,2.16-.81.61q-1.61-1-8.37-1.74-3.66,6.6-5.71,10.86a25.29,25.29,0,0,0,6.18-1.88,44.75,44.75,0,0,1,6.43-3.36v1.14q-.69.81-.69,0c2.87-2.09,4.38-3.48,4.55-4.16Z" transform="translate(-35.65 -88.21)"/><path class="cls-8" d="M367.76,88.23q1.64-.2,5.79,1.89c3.2,1.51,5.57,2.18,7.1,2l.09.67c.07.53,0,.81-.23.83l-.13-1-.78.11.58-.27.67.5,0,.3q.22,1.77-2.05,5.93-3.07,7.48-6.79,22.63L370.81,126l-1.55.2.77-5.71.09.55,1.08-.14a85.92,85.92,0,0,1-5.74,13.5,58,58,0,0,1-3.41,6.32l-1.36.17a88.59,88.59,0,0,1,1.44-14.28q1.47-6.06,3.47-13.17l.08.59,1.28-.17a9.19,9.19,0,0,0-1,1.86q.17,1.32-3.69,7.37a118.21,118.21,0,0,1-8,13.39,3.72,3.72,0,0,1-1.13,1.31l0,.3-1.52.2-.25-2-.94-10.2a12,12,0,0,1-.75-3l-.39-13,.06.53,1.13-.14q-.92,4.08-2.71,9.62l-.25,5-.67.08c-.72.09-1.16-.53-1.33-1.86l1.19-.16a40.66,40.66,0,0,1-2.24,9.34q-1.63,2.69-3.75,11.14s0,0,0-.05l-.39.47-1.33.17,1-11.81.06.55,1.08-.14-3.05,11-1.53.19q2.84-18.51,4.16-33.32a9.55,9.55,0,0,0,.17-2.77l1.47-.2.16.64-1.13.14,0-1.78-.17-.41a12.4,12.4,0,0,0,.39-3.52c-.09-2.9.19-4.4.83-4.49.06-.13.11,0,.17.41a11.75,11.75,0,0,1-2.75.86l-.63.08-.92-.66a12.41,12.41,0,0,1,3.27-2.08c.1-.09.16,0,.2.39l.72-.09-3.86,1.06L338.54,97q1.74-.81,11.86-6.43l.25.19-.22,0,7.35-.36.58.8-.66,3.64a43,43,0,0,0-.11,7.51l.05.44.92,4.19-1.22.17a19.59,19.59,0,0,1,1.1-4.33,9.81,9.81,0,0,0,.23-2.49l1.49-.2q.61,5-2.8,18.88l1.69-5.49-1,2q2.13-3,6.18-10.2,4.32-7.32,5.43-9.76c.45-1,.85-1.52,1.22-1.55,0,.14-.51-.18-1.6-1l-.25-.28-.09-.58,1-.45.53.2-2.58-2.83Zm-14.19,1.3h1.35v1.11l-3.43,1ZM381,96.16h1.13v1.19a5,5,0,0,0-2.27,1.33h-1.58A10.63,10.63,0,0,1,381,96.16Z" transform="translate(-35.65 -88.21)"/><path class="cls-9" d="M396.09,88.51h2.06a30.54,30.54,0,0,1,5.65,1.74c.45.34,2.3.89,5.58,1.67a10,10,0,0,0,3.13.8h.11l1.11-.28a3,3,0,0,0,1.3,2,13.59,13.59,0,0,1,3.38,6.71,14,14,0,0,1,.75,3.38q-2.25,11.86-3.69,15.78a16,16,0,0,1-5.54,6.29v-.69h-.83a14.77,14.77,0,0,1,3.82-1.5l.48.64v.36a17.34,17.34,0,0,1-4.27,3.94q-2.38,1.58-11,8.12c-4.46,2.72-7.09,4.07-7.9,4.07,0-.68-.7-1.51-2.08-2.49a6.94,6.94,0,0,0-1.06-1.72,37,37,0,0,1-7.71-11.53,14.46,14.46,0,0,1-1.08-4.61l-2.88,3.55V122.8q0-.52,3.22-6.76.82-2.7,6.62-16.47,2.87-4.77,2.86-6.29v-.7l2.85-.64v.56c-.68-.28-1-.6-1-1v-.78l.61-.52,8.68.47A31.23,31.23,0,0,1,396.09,88.51Zm6.16,9.06v-.66q3.56,3.27,3.55,4t-10.54,1.27l.23,0v-.7l1.63.45v.63a24.71,24.71,0,0,0-4.41,7.68l-2.83,5.6-1.24,3.86h-1.47l.25-2.69v.5h1.11l-1.47,3.38h.11v-.75s.32.92.91,2.77q0,.25,3.36,5.71l0-.08h-1.16v.53l-.37-1.17h1.17l1.19.56c-.17,0,.39-.48,1.66-1.44q10.16-5.3,12.26-6.91l.17-.44.41.3-3.13,1.25v-1c.05-.34,1.62-1.82,4.68-4.47.71-1.09,1.45-3.75,2.25-8l.11-1.78-.08-3.55h1.24c-.14,2-.67,3-1.58,3a19.79,19.79,0,0,0-4.57-5.88C403.83,98.23,402.69,97.57,402.25,97.57ZM417,100.48h1.55l.67,2.39C418.11,102.87,417.37,102.07,417,100.48Z" transform="translate(-35.65 -88.21)"/><path class="cls-10" d="M450,88.23q1.63-.2,5.8,1.89c3.19,1.51,5.56,2.18,7.09,2l.09.67c.07.53,0,.81-.23.83l-.13-1-.78.11.58-.27.67.5,0,.3c.14,1.18-.54,3.16-2.06,5.93q-3.07,7.48-6.79,22.63L453,126l-1.55.2.78-5.71.08.55,1.08-.14a85.92,85.92,0,0,1-5.74,13.5,58,58,0,0,1-3.41,6.32l-1.36.17a88.59,88.59,0,0,1,1.44-14.28q1.47-6.06,3.47-13.17l.08.59,1.28-.17a9.19,9.19,0,0,0-1,1.86q.17,1.32-3.69,7.37a119.36,119.36,0,0,1-7.95,13.39,3.84,3.84,0,0,1-1.14,1.31l0,.3-1.53.2-.25-2-.94-10.2a12,12,0,0,1-.75-3l-.39-13,.06.53,1.13-.14q-.91,4.08-2.71,9.62l-.25,5-.67.08c-.72.09-1.16-.53-1.33-1.86l1.19-.16a40.66,40.66,0,0,1-2.24,9.34q-1.63,2.69-3.74,11.14s0,0,0-.05l-.39.47-1.33.17,1.05-11.81.06.55,1.08-.14-3,11-1.53.19q2.83-18.51,4.16-33.32a9.55,9.55,0,0,0,.17-2.77l1.47-.2.17.64-1.14.14,0-1.78-.17-.41a12.4,12.4,0,0,0,.39-3.52c-.09-2.9.19-4.4.83-4.49.06-.13.12,0,.17.41a11.86,11.86,0,0,1-2.74.86l-.64.08L420.6,99a12.34,12.34,0,0,1,3.28-2.08c.09-.09.15,0,.19.39l.72-.09-3.85,1.06L420.77,97q1.74-.81,11.87-6.43l.25.19-.23,0,7.35-.36.58.8-.66,3.64a43,43,0,0,0-.11,7.51l.05.44.92,4.19-1.22.17a19.3,19.3,0,0,1,1.11-4.33,10.42,10.42,0,0,0,.22-2.49l1.5-.2q.6,5-2.81,18.88l1.7-5.49-1,2q2.13-3,6.18-10.2c2.88-4.88,4.7-8.13,5.43-9.76.45-1,.85-1.52,1.22-1.55,0,.14-.51-.18-1.6-1l-.25-.28-.09-.58,1-.45.53.2-2.58-2.83Zm-14.19,1.3h1.36v1.11l-3.44,1Zm27.42,6.63h1.13v1.19a5,5,0,0,0-2.27,1.33H460.5A10.8,10.8,0,0,1,463.22,96.16Z" transform="translate(-35.65 -88.21)"/><path class="cls-11" d="M156.58,157.84l.68.32a32.09,32.09,0,0,1,6.4.58v.33h-1a14,14,0,0,0,2.6-.3l-.12.46.26.9a18.05,18.05,0,0,1,.28,3v.22h-.22c-.18,0-.38-.25-.59-.74h.32a7,7,0,0,1-.85,2.84c-.13.37-.34.56-.65.56a26.73,26.73,0,0,1-5.3.5l-1.11,0h.16v-.28l.6.08v.31c-1,.25-1.55.37-1.55.35l-.34,1v-.24l.36-.21,0-.06.4-.13v.28a29.52,29.52,0,0,1-2.29,3.6l-1.49,2h-.34V173a16.46,16.46,0,0,1,1.12-4.78,13.49,13.49,0,0,0,.27-2.69l.11-1-.37.56v-.7a22,22,0,0,1,1.59-5l-.22-.23c0-.16.1-.25.3-.28h0a1.54,1.54,0,0,1-.42-.79h1.1A.33.33,0,0,1,156.58,157.84Zm2.81,3.38c-.48.88-1.14,2.14-2,3.79h-.3a21.84,21.84,0,0,0,2.43-.77l2.58-1.22-.43.64v.05c0-.05,0-.07,0-.07h.12c.71,0,1.07-.11,1.07-.18q.27-.15.27-.27v0l0-1.31-.09-.35h.34v-.15l.06.4-.25.25c-.19-.23-.87-.37-2-.43l-1.83-.23Z" transform="translate(-35.65 -88.21)"/><path class="cls-12" d="M171.46,157.53c0,.31,0,.49.12.55v.13a1,1,0,0,1-.07.4q-.64.69-.48.69h1.48a2.75,2.75,0,0,0-2,1.7c-.13.35-.58,1.26-1.35,2.72h0c1.23-.06,2.28-.1,3.16-.12l.42-1.19c.08-.86.22-1.28.42-1.28a4.48,4.48,0,0,1,.13-1.39l-.33-.93c-.05,0-.15-.14-.29-.43h.39l.95.34a5.09,5.09,0,0,1-.54-.53l.16-.2h.18a7.19,7.19,0,0,1,2.1,1.26c.29.26.43.32.43.2a1.71,1.71,0,0,1,1.08-.39l.13.13c0,.13-.27.45-.8.95h-.43l.71-.11a2.13,2.13,0,0,1-.38.94,2.47,2.47,0,0,1-.6,1.21,14.55,14.55,0,0,0-1,1.22h-.31l.63,0,.27.07v.28l-1,.29c-.33.56-.86,1.69-1.6,3.37-.06.06-.08.07-.08,0h-.26l.85-.67v.47c-.25.45-.59,1.16-1,2.12a29.11,29.11,0,0,1-1.94,2.78l-1,1.61V173a8.35,8.35,0,0,1,.78-2.17h.25l0,0h-.23l-.07-.37,1.35-5.12h.27c-.41.15-1.66.73-3.74,1.73a18.41,18.41,0,0,0-.9,2.26,22.73,22.73,0,0,1-2.2,3.54h-.34v-.18a8,8,0,0,1,.42-2.27,32.17,32.17,0,0,1,.91-5l.05-.35v.14h.33l-.42,1h-.43a28,28,0,0,1,1.1-4.56,12.88,12.88,0,0,0,.66-2.15l-.1-.15a1,1,0,0,1,.29-.31l0,.07h-.27v-.19c.12-.73.26-1.1.42-1.1h2c.15,0,.24.1.26.3l-.07-.07h-.06l.29-.06.08.26a1.92,1.92,0,0,1-.37.71v-.38Z" transform="translate(-35.65 -88.21)"/><path class="cls-13" d="M181.87,157.83h.48a1.86,1.86,0,0,1,1,.84l.35.57v.08a1.6,1.6,0,0,1-.42,1.05h-.43l.36-.34h.25l.16.16a2.93,2.93,0,0,1-.58,1.21,8.67,8.67,0,0,1-1.22,2.44,9.75,9.75,0,0,0-1.61,3.74v-.14h-.31l.4-.71h.44a29,29,0,0,1-1.66,4.69c-.9,2-1.62,3.22-2.17,3.61l-.23-.23a30.07,30.07,0,0,0,.87-4.31v-.22s-.13,0-.4-.07a18.1,18.1,0,0,0,.54-3.88l.57-2.57a1,1,0,0,1,.31-.83l-.06-1.38a1.89,1.89,0,0,1,.7-.33v.19a14,14,0,0,0-2.62-.53v-.24a10.44,10.44,0,0,1,1.89-.83v.25h-1l-.17-.16v-.09q0-.28,1-.42v.27h.1l-1.15.11v-.35a23.49,23.49,0,0,1,3.65-.73,4.81,4.81,0,0,0,1.37-.39v.12Zm-3,1.8v-.3h-.29v.3Zm1.63,6.62h.42v.22c0,.17-.17.32-.51.47v-.32Z" transform="translate(-35.65 -88.21)"/><path class="cls-14" d="M190.16,157.8l.46.11.33-.09.09.26a3.85,3.85,0,0,1-.43.92l-.07.34v-.15h-.32a12.7,12.7,0,0,1,.8-1.1v.62a4.58,4.58,0,0,0-.22,1,17.39,17.39,0,0,0-.83,2.68c-.16.34-.23.48-.22.43l0,0v.44a30,30,0,0,0-1.6,3.72l-.69,2h-.31a7.12,7.12,0,0,1,1.31-.49,13.2,13.2,0,0,1,3.36-1,22.84,22.84,0,0,0,4.87-1.12,4.17,4.17,0,0,1,.71-.31v.34a4,4,0,0,1-.69.58v-.24h-.21l.74-.22.34.34c-.26.34-2.09,1.29-5.52,2.85a39.88,39.88,0,0,0-5,2.35l-.62.3v-.23h.37v.34l-3.71,1-.18-.19a3,3,0,0,0,.27-.92,16.65,16.65,0,0,0,1.62-5.52v.13h.33a14,14,0,0,1-1,1.75V168c.14-.45.33-1.19.56-2.21a7.34,7.34,0,0,0,.85-1.85l1.11-4.2s-.11,0-.32,0c0,0-.05,0-.16,0v-.19c0-.1.13-.2.4-.31v.23l-.76,0-.27-.07V159a16,16,0,0,1,3.37-1Zm-4.3,14.7v-.25h-.15l.09,0v.24H186Zm4.7-11.19v.41a10.16,10.16,0,0,1-1,1.55v-.63A3.37,3.37,0,0,1,190.56,161.31Zm5.5,5.91V167h-.18l-.07,0v.25H196Zm.19,0v-.3h-.36v.3Z" transform="translate(-35.65 -88.21)"/><path class="cls-15" d="M201.75,157.83h.48a1.9,1.9,0,0,1,1,.84l.35.57v.08a1.56,1.56,0,0,1-.43,1.05h-.43l.37-.34h.24l.16.16a3,3,0,0,1-.57,1.21,8.48,8.48,0,0,1-1.23,2.44,9.69,9.69,0,0,0-1.6,3.74v-.14h-.31l.4-.71h.44a29.12,29.12,0,0,1-1.67,4.69c-.89,2-1.61,3.22-2.16,3.61l-.23-.23a31.76,31.76,0,0,0,.87-4.31v-.22s-.14,0-.41-.07a17.78,17.78,0,0,0,.55-3.88l.56-2.57a1,1,0,0,1,.31-.83l-.05-1.38a1.89,1.89,0,0,1,.7-.33v.19a14.1,14.1,0,0,0-2.62-.53v-.24a10.44,10.44,0,0,1,1.89-.83v.25h-1l-.16-.16v-.09q0-.28,1.05-.42v.27h.1l-1.15.11v-.35a23.49,23.49,0,0,1,3.65-.73,4.77,4.77,0,0,0,1.36-.39v.12Zm-3,1.8v-.3h-.29v.3Zm1.63,6.62h.42v.22c0,.17-.17.32-.52.47v-.32Z" transform="translate(-35.65 -88.21)"/><path class="cls-16" d="M206.58,157.84l.68.32a32.16,32.16,0,0,1,6.4.58v.33h-1a14.1,14.1,0,0,0,2.6-.3l-.12.46.26.9a18.05,18.05,0,0,1,.28,3v.22h-.23c-.17,0-.37-.25-.59-.74h.33a7,7,0,0,1-.86,2.84c-.12.37-.34.56-.64.56a26.8,26.8,0,0,1-5.3.5l-1.11,0h.15v-.28l.61.08v.31c-1,.25-1.56.37-1.56.35l-.34,1v-.24l.37-.21,0-.06.39-.13v.28a27.23,27.23,0,0,1-2.28,3.6l-1.49,2h-.35V173a16.8,16.8,0,0,1,1.12-4.78,12.8,12.8,0,0,0,.28-2.69l.11-1-.37.56v-.7a22,22,0,0,1,1.59-5l-.22-.23c0-.16.1-.25.29-.28h0a1.54,1.54,0,0,1-.42-.79h1.1A.32.32,0,0,1,206.58,157.84Zm2.81,3.38c-.48.88-1.14,2.14-2,3.79h-.3a21.45,21.45,0,0,0,2.44-.77l2.58-1.22-.43.64v.05c0-.05,0-.07,0-.07h.13c.71,0,1.07-.11,1.07-.18.17-.1.26-.19.26-.27v0l0-1.31-.09-.35h.34v-.15l.06.4-.26.25c-.18-.23-.86-.37-2-.43l-1.83-.23Z" transform="translate(-35.65 -88.21)"/><path class="cls-17" d="M218.69,157.84l.68.32a32.23,32.23,0,0,1,6.4.58v.33h-1.06a14.12,14.12,0,0,0,2.61-.3l-.12.46.25.9a18.14,18.14,0,0,1,.29,3v.22h-.23c-.18,0-.37-.25-.59-.74h.32a7,7,0,0,1-.85,2.84.68.68,0,0,1-.65.56,26.63,26.63,0,0,1-5.29.5l-1.11,0h.15v-.28l.61.08v.31c-1,.25-1.56.37-1.56.35l-.34,1v-.24l.37-.21.05-.06.39-.13v.28a28.59,28.59,0,0,1-2.28,3.6l-1.5,2h-.34V173a16.8,16.8,0,0,1,1.12-4.78,12.8,12.8,0,0,0,.28-2.69l.1-1-.36.56v-.7a22,22,0,0,1,1.59-5l-.22-.23c0-.16.1-.25.29-.28h0a1.54,1.54,0,0,1-.42-.79h1.1A.32.32,0,0,1,218.69,157.84Zm2.8,3.38c-.48.88-1.13,2.14-2,3.79h-.3a20.53,20.53,0,0,0,2.43-.77l2.58-1.22-.43.64v.05c0-.05,0-.07,0-.07h.12c.72,0,1.07-.11,1.07-.18q.27-.15.27-.27v0l0-1.31-.09-.35h.34v-.15l.05.4-.25.25c-.19-.23-.87-.37-2-.43l-1.84-.23Z" transform="translate(-35.65 -88.21)"/><path class="cls-18" d="M232.26,157.83h.47a1.92,1.92,0,0,1,1,.84l.34.57v.08a1.6,1.6,0,0,1-.42,1.05h-.43l.37-.34h.24l.16.16a3,3,0,0,1-.57,1.21,8.48,8.48,0,0,1-1.23,2.44,9.69,9.69,0,0,0-1.6,3.74v-.14h-.31l.4-.71h.43a28.11,28.11,0,0,1-1.66,4.69c-.89,2-1.61,3.22-2.16,3.61l-.23-.23a31.76,31.76,0,0,0,.87-4.31v-.22s-.14,0-.41-.07a17.78,17.78,0,0,0,.55-3.88l.56-2.57a1,1,0,0,1,.31-.83l-.06-1.38a1.94,1.94,0,0,1,.71-.33v.19a14.1,14.1,0,0,0-2.62-.53v-.24a10.44,10.44,0,0,1,1.89-.83v.25h-1l-.16-.16v-.09q0-.28,1.05-.42v.27h.09l-1.14.11v-.35a23.49,23.49,0,0,1,3.65-.73,4.77,4.77,0,0,0,1.36-.39v.12Zm-3,1.8v-.3H229v.3Zm1.63,6.62h.42v.22c0,.17-.17.32-.52.47v-.32Z" transform="translate(-35.65 -88.21)"/><path class="cls-19" d="M235.09,157.9h.23a11.56,11.56,0,0,1,3.46.91c.1.09,0,.09-.15,0a3.25,3.25,0,0,0,0-.47h.46c0,.14.23.34.7.6l1.08,1.32.56.51v.62h-.38a6.62,6.62,0,0,1,.5-.64v-.14H242v.19a7.91,7.91,0,0,1-.82,2.17,19.93,19.93,0,0,0-.83,5.37v-.14H240a20.22,20.22,0,0,1,1.77-4.07v.17h.26l-.82.68v-.48c.47-.83,1.08-1.8,1.84-2.93.13-.3.39-1,.76-2.08h.4l.06,2.35a14.06,14.06,0,0,1-.16,1.56l0,.12-.56,1.34a8.32,8.32,0,0,1-.69,2,48.4,48.4,0,0,0-1.5,4.84l-.32,1.45h-.31l-2.14-2.71-.26-.7h.3l0,.67h-.45v-.18c-.07-.35-.13-2.05-.19-5.09v-.41l0-1.93v-.37a7.48,7.48,0,0,1-.39,1.16h0v.55c-.62,1.55-1.43,3.34-2.42,5.35q-.48,1.07-1.53,3.6h-.44a41.71,41.71,0,0,0,1-5c.11-.69.5-2.25,1.17-4.69l0,.08h.25l-.91,1.36h-.35v-.19a5.94,5.94,0,0,1,.53-1.37l1.09-4.57a5.18,5.18,0,0,0-1-.56Z" transform="translate(-35.65 -88.21)"/><path class="cls-20" d="M244.79,172.33v.58l-.16.28h-.38V173Zm13.45-14.42v.39a5.86,5.86,0,0,0-1.67,1.07l-1.11.73h-.29l-.08-.26h.34c0,.16-.16.23-.5.23a1.27,1.27,0,0,1-.37.22c0,.11-.32.27-.95.45h-.13l-.06,0-1.71.35-1.43,2.59H250l5-1.49-4.94,2v-.24h-.21a38.78,38.78,0,0,1,4.16-.59l.92-.06v.31l-6.27,3.24-.36.87v-.16h-.38l.64-.59h.31a10.66,10.66,0,0,1-.93,2.12h-.3c4.41-.86,7.15-1.45,8.21-1.79,0,0,.19-.1.55-.18v.31a10.44,10.44,0,0,1-2.18,1.39l-1.13.58-.1.1v-.3l1-.42.35-.06a.44.44,0,0,1,.4.3,4.4,4.4,0,0,1-1.54.82,51.84,51.84,0,0,0-5.84,2,13.74,13.74,0,0,0-2.54,1.09h-.31v-.21a10.72,10.72,0,0,0,.47-2.45l.9-3.3.17-1.34c.09,0,.17-.25.25-.75v0h.38V165h-.51a13.19,13.19,0,0,0,.61-3.35h-.54v-.32l.57-.18v-.28c-.7.07-1.37.11-2,.11l0,0h-.27l1.47-2.45h.3c-.18,0-.28-.09-.28-.26l.13-.13h.43s0,.07-.09.07l.68,0,1.89-.07,2.19,0,2.61-.13,1.7.09a3,3,0,0,0,.86-.16Zm-2.45,0h.44v.35l-.37,0h-.52V158Z" transform="translate(-35.65 -88.21)"/><path class="cls-21" d="M266.54,158.17v-.24h.23a6.36,6.36,0,0,1,2.63,1.22h0l-.21.15c.14,0,.21-.21.21-.62v-.31l.3-.3a9,9,0,0,1,.6,1.29v.38c0,.4.09.6.28.6v.26c-.24.36-1.27.85-3.11,1.47a5.6,5.6,0,0,0-.88.51h-.47c.41-.51.6-.7.58-.57a5.06,5.06,0,0,1-.63,0,4.79,4.79,0,0,1,1.33-1v.24h.19a25,25,0,0,0-4.12.79,9.53,9.53,0,0,0-1.33.37,1.47,1.47,0,0,1-.82.56v-.28l.14-.55v.15h.3a4.13,4.13,0,0,0-.56,1.28l0,.24-.3.3a1.14,1.14,0,0,1,.55.23l1.26.06,5.09-.08a24.42,24.42,0,0,1,3.44.27v.21c-.32.3-1.07.91-2.27,1.83l.11-.13h-.38l.74-.25v.33a21.89,21.89,0,0,1-3.59,3,52.59,52.59,0,0,1-8.05,4l-1.58.91,1.72-2.12a2.83,2.83,0,0,0,.43-.42v.3h.17a5.28,5.28,0,0,0-1.13.9v-.51a5.07,5.07,0,0,1,1.34-1.21q.45-.41,6-4.64c.23-.23.35-.32.35-.27h0l-.62-.05c0-.08,0-.14-.16-.15a17.33,17.33,0,0,0-3.5-.48,13.48,13.48,0,0,1-2.08-.61l-.77-.72a19,19,0,0,0,.91-3l.19-.51s-.11-.06-.33-.06v-.27a33.86,33.86,0,0,1,4.34-1.63,13.65,13.65,0,0,1,3.82-.74C266.88,158.47,266.77,158.4,266.54,158.17Zm3.38,1.09V159h-.35v.29Z" transform="translate(-35.65 -88.21)"/><path class="cls-22" d="M275.32,172.33v.58l-.16.28h-.38V173Zm13.45-14.42v.39a5.86,5.86,0,0,0-1.67,1.07l-1.11.73h-.29l-.07-.26H286c0,.16-.17.23-.51.23a1.27,1.27,0,0,1-.37.22c0,.11-.32.27-.95.45H284l-.05,0-1.72.35-1.43,2.59h-.28l5-1.49-4.94,2v-.24h-.21a39.2,39.2,0,0,1,4.16-.59l.92-.06v.31l-6.27,3.24-.35.87v-.16h-.38l.63-.59h.32a11.07,11.07,0,0,1-.94,2.12h-.3c4.41-.86,7.15-1.45,8.22-1.79q0-.06.54-.18v.31a10.18,10.18,0,0,1-2.18,1.39l-1.13.58-.09.1v-.3l1-.42.36-.06a.43.43,0,0,1,.39.3,4.4,4.4,0,0,1-1.54.82,52.63,52.63,0,0,0-5.84,2,13.74,13.74,0,0,0-2.54,1.09H275v-.21a11.32,11.32,0,0,0,.47-2.45l.9-3.3.17-1.34q.12,0,.24-.75v0h.38V165h-.51a13.3,13.3,0,0,0,.62-3.35h-.55v-.32l.57-.18v-.28c-.7.07-1.36.11-2,.11l0,0H275l1.47-2.45h.3a.24.24,0,0,1-.27-.26l.13-.13h.43s0,.07-.09.07l.68,0,1.88-.07,2.2,0,2.6-.13,1.7.09a3,3,0,0,0,.86-.16Zm-2.45,0h.44v.35l-.36,0h-.53V158Z" transform="translate(-35.65 -88.21)"/><path class="cls-23" d="M296.24,157.89h.58a14.39,14.39,0,0,0,1.42.75,24.5,24.5,0,0,0,2.23,1.35,7,7,0,0,1,1.72,1.11h.22c-.18.58-.69,1.8-1.55,3.68a5.22,5.22,0,0,0-1.34,1.08,11.32,11.32,0,0,1-1.8,1.75l-.22.17H297l.55-.1V168a11.4,11.4,0,0,1-2.69,2.56,17.06,17.06,0,0,0-2.36,1.67,8.42,8.42,0,0,1-2.34.53.62.62,0,0,1-.42.12l-.16-.12v.07s-.48.13-1.3.4H288v-.3a5.06,5.06,0,0,1,1-.48c.21,0,0,.17-.62.54h-.6l1.51-1.16v0l.05-1.63v0a43.4,43.4,0,0,1,.35-6.85l.16-.79-.05-.75.13-1.12,0-.12L288,160h-.23v-.34a24.7,24.7,0,0,1,2.89-.52h0v.26a20.6,20.6,0,0,0-3.35-.5v-.36c2.47-.19,4-.28,4.49-.28l2,0h.34c0,.07.11.1.32.1a16.67,16.67,0,0,1,3.61.78.82.82,0,0,0,.42.16h-.18v.24A24.45,24.45,0,0,1,296.24,157.89ZM288,172.66h.46V173H288Zm3.6-2.69v-.44l-.84.87Zm1.44-8.69a3.61,3.61,0,0,0-.23.95v-.11h-.39c0-.06.23-.25.67-.56h.3v.19a4.89,4.89,0,0,1-.52,1.44q-.84,3.66-1.11,5.58a11.57,11.57,0,0,1,1.82-1.7c.93-.78,1.84-1.61,2.73-2.48s1.45-1.2,1.52-1.29l.13-.37h.21a14.5,14.5,0,0,1-1.51-.32l-.11-.11v-.14l.13-.13h.13l1.53.06h-.18v.29c-.06,0-.08-.09-.08-.25l0,0v.14Q295.41,161.84,293.07,161.28Zm3.39,7.11H296l.34-.18h.49A2.81,2.81,0,0,1,296.46,168.39Zm0-10.56h.46v.35h-.46Z" transform="translate(-35.65 -88.21)"/><path class="cls-24" d="M306.23,157.83h.48a1.86,1.86,0,0,1,1,.84l.35.57v.08a1.6,1.6,0,0,1-.42,1.05h-.43l.37-.34h.24l.16.16a3,3,0,0,1-.57,1.21,9,9,0,0,1-1.23,2.44,9.75,9.75,0,0,0-1.61,3.74v-.14h-.3l.39-.71h.44a29,29,0,0,1-1.66,4.69c-.89,2-1.61,3.22-2.17,3.61l-.22-.23a30.89,30.89,0,0,0,.86-4.31v-.22s-.13,0-.4-.07a17.41,17.41,0,0,0,.54-3.88l.57-2.57a1,1,0,0,1,.31-.83l-.06-1.38a1.94,1.94,0,0,1,.71-.33v.19a14.26,14.26,0,0,0-2.62-.53v-.24a9.68,9.68,0,0,1,1.89-.83v.25h-1l-.16-.16v-.09c0-.19.35-.33,1-.42v.27h.1l-1.14.11v-.35a23.25,23.25,0,0,1,3.65-.73,4.77,4.77,0,0,0,1.36-.39v.12Zm-3,1.8v-.3h-.3v.3Zm1.63,6.62h.42v.22c0,.17-.17.32-.52.47v-.32Z" transform="translate(-35.65 -88.21)"/><path class="cls-25" d="M318.91,157.93c.94,1.66,1.5,2.69,1.68,3.1l-.16.15h-.16a16.29,16.29,0,0,0-3-.39h-.48c-.27.49-.69,1.37-1.27,2.64l-.34.55q.12,0,.12.36H315l1.36-.68.17.31a12.57,12.57,0,0,1-2,3.06,7.08,7.08,0,0,1-1.46,1.79,7.86,7.86,0,0,0-1.44,1.74l-2.26,3.06V173a37.71,37.71,0,0,0,1.54-4,14,14,0,0,0,1-3.72l-.65.79H311v-.19a12.21,12.21,0,0,1,1.46-3.49l.18-.6h-.54l-.78,0a18.32,18.32,0,0,0-4.19.48A5.08,5.08,0,0,1,308.7,161a20.32,20.32,0,0,1,3.21-1.84v.23h.2l-1.47.33v-.37l2.19-.61a.47.47,0,0,1-.28.5v-.25h-.17a29.78,29.78,0,0,1,5-.7h.13c.29.07.43.13.43.19h-.37V158h.37l.51.8C318.51,158.21,318.67,157.93,318.91,157.93Z" transform="translate(-35.65 -88.21)"/><path class="cls-26" d="M322.26,157.83h.48a1.86,1.86,0,0,1,1,.84l.35.57v.08a1.6,1.6,0,0,1-.42,1.05h-.43l.36-.34h.24l.17.16a3.07,3.07,0,0,1-.58,1.21,8.67,8.67,0,0,1-1.22,2.44,9.59,9.59,0,0,0-1.61,3.74v-.14h-.31l.4-.71h.44a29.12,29.12,0,0,1-1.67,4.69c-.89,2-1.61,3.22-2.16,3.61l-.23-.23a31.76,31.76,0,0,0,.87-4.31v-.22s-.14,0-.41-.07a17.78,17.78,0,0,0,.55-3.88l.57-2.57a1,1,0,0,1,.3-.83l-.05-1.38a1.89,1.89,0,0,1,.7-.33v.19a14,14,0,0,0-2.62-.53v-.24a10.44,10.44,0,0,1,1.89-.83v.25h-1l-.16-.16v-.09q0-.28,1-.42v.27h.1l-1.15.11v-.35a23.49,23.49,0,0,1,3.65-.73,4.77,4.77,0,0,0,1.36-.39v.12Zm-3,1.8v-.3H319v.3Zm1.63,6.62h.42v.22c0,.17-.17.32-.52.47v-.32Z" transform="translate(-35.65 -88.21)"/><path class="cls-27" d="M329.34,157.68h.6a8.43,8.43,0,0,1,1.65.51,7.54,7.54,0,0,0,1.63.49,3.07,3.07,0,0,0,.92.23h0l.33-.08a.85.85,0,0,0,.38.58,4,4,0,0,1,1,2,4.3,4.3,0,0,1,.22,1A35.56,35.56,0,0,1,335,167a4.64,4.64,0,0,1-1.63,1.84v-.2h-.24a4.15,4.15,0,0,1,1.12-.44l.14.19v.1a4.85,4.85,0,0,1-1.25,1.15c-.47.31-1.54,1.11-3.21,2.38a8.92,8.92,0,0,1-2.31,1.19c0-.2-.21-.44-.61-.73a2.34,2.34,0,0,0-.31-.5,10.63,10.63,0,0,1-2.25-3.37,4.06,4.06,0,0,1-.32-1.35l-.84,1v-.57a14.59,14.59,0,0,1,.94-2c.16-.52.81-2.13,1.93-4.81a5.08,5.08,0,0,0,.84-1.85v-.2l.84-.19v.17c-.2-.08-.3-.18-.3-.29v-.22l.17-.16,2.54.14S330,158.15,329.34,157.68Zm1.8,2.65v-.19c.69.63,1,1,1,1.18s-1,.27-3.09.37h.07v-.21l.48.13v.19a7.24,7.24,0,0,0-1.29,2.25l-.83,1.64-.36,1.12h-.43l.07-.78v.14h.32l-.43,1h0v-.22s.09.27.26.81a18.69,18.69,0,0,0,1,1.67v0h-.34v.15l-.11-.34h.34l.35.17s.11-.15.49-.43a33.2,33.2,0,0,0,3.58-2l.05-.13.12.09-.91.37V167a7.84,7.84,0,0,1,1.37-1.31,8.3,8.3,0,0,0,.65-2.33l0-.52,0-1h.37c-.05.58-.2.88-.47.88a5.63,5.63,0,0,0-1.33-1.72A3,3,0,0,0,331.14,160.33Zm4.31.85h.46l.19.7C335.78,161.88,335.56,161.65,335.45,161.18Z" transform="translate(-35.65 -88.21)"/><path class="cls-28" d="M338,157.9h.22a11.67,11.67,0,0,1,3.47.91c.09.09,0,.09-.16,0a3.25,3.25,0,0,0,0-.47H342c0,.14.23.34.7.6l1.09,1.32.56.51v.62H344a6.62,6.62,0,0,1,.5-.64v-.14h.46v.19a7.91,7.91,0,0,1-.82,2.17,19.93,19.93,0,0,0-.83,5.37v-.14H343a19.34,19.34,0,0,1,1.76-4.07v.17H345l-.82.68v-.48c.47-.83,1.08-1.8,1.84-2.93.13-.3.39-1,.76-2.08h.4l.06,2.35a14.06,14.06,0,0,1-.16,1.56l0,.12-.56,1.34a8.32,8.32,0,0,1-.69,2,48.4,48.4,0,0,0-1.5,4.84l-.32,1.45h-.31l-2.13-2.71-.27-.7h.31l-.05.67h-.45v-.18c-.07-.35-.13-2.05-.19-5.09v-.41l0-1.93v-.37a7.48,7.48,0,0,1-.39,1.16h0v.55c-.62,1.55-1.43,3.34-2.41,5.35-.33.71-.84,1.91-1.54,3.6h-.44a41.71,41.71,0,0,0,1-5c.11-.69.5-2.25,1.17-4.69l0,.08h.25l-.91,1.36h-.35v-.19a5.94,5.94,0,0,1,.53-1.37l1.09-4.57a5.48,5.48,0,0,0-1-.56Z" transform="translate(-35.65 -88.21)"/></svg>