<svg id="Layer_1" data-name="Layer 1" xmlns="http://www.w3.org/2000/svg" xmlns:xlink="http://www.w3.org/1999/xlink" viewBox="0 0 430.46 153.47"><defs><style>.cls-1{fill:url(#linear-gradient);}.cls-2{fill:url(#linear-gradient-2);}.cls-3{fill:url(#linear-gradient-3);}.cls-4{fill:url(#linear-gradient-4);}.cls-5{fill:url(#linear-gradient-5);}.cls-6{fill:url(#linear-gradient-6);}.cls-7{fill:url(#linear-gradient-7);}.cls-8{fill:url(#linear-gradient-8);}.cls-9{fill:url(#linear-gradient-9);}.cls-10{fill:url(#linear-gradient-10);}.cls-11{fill:url(#linear-gradient-11);}.cls-12{fill:url(#linear-gradient-12);}.cls-13{fill:url(#linear-gradient-13);}.cls-14{fill:url(#linear-gradient-14);}.cls-15{fill:url(#linear-gradient-15);}</style><linearGradient id="linear-gradient" x1="54.23" y1="69.79" x2="54.23" y2="143.57" gradientUnits="userSpaceOnUse"><stop offset="0" stop-color="#ffde17"/><stop offset="1" stop-color="#ed1c24"/></linearGradient><linearGradient id="linear-gradient-2" x1="110.14" y1="70.29" x2="110.14" y2="148.05" xlink:href="#linear-gradient"/><linearGradient id="linear-gradient-3" x1="157.06" y1="69.83" x2="157.06" y2="150.45" xlink:href="#linear-gradient"/><linearGradient id="linear-gradient-4" x1="192.13" y1="69.79" x2="192.13" y2="143.57" xlink:href="#linear-gradient"/><linearGradient id="linear-gradient-5" x1="241.08" y1="70.13" x2="241.08" y2="141.82" xlink:href="#linear-gradient"/><linearGradient id="linear-gradient-6" x1="318.57" y1="68.71" x2="318.57" y2="145.47" xlink:href="#linear-gradient"/><linearGradient id="linear-gradient-7" x1="370.58" y1="69.11" x2="370.58" y2="141.82" xlink:href="#linear-gradient"/><linearGradient id="linear-gradient-8" x1="431.3" y1="68.71" x2="431.3" y2="145.47" xlink:href="#linear-gradient"/><linearGradient id="linear-gradient-9" x1="149.8" y1="168.93" x2="149.8" y2="219.08" xlink:href="#linear-gradient"/><linearGradient id="linear-gradient-10" x1="189.21" y1="168.93" x2="189.21" y2="216.36" xlink:href="#linear-gradient"/><linearGradient id="linear-gradient-11" x1="221.28" y1="167.97" x2="221.28" y2="219.21" xlink:href="#linear-gradient"/><linearGradient id="linear-gradient-12" x1="250.89" y1="168.63" x2="250.89" y2="220.63" xlink:href="#linear-gradient"/><linearGradient id="linear-gradient-13" x1="283.37" y1="168.8" x2="283.37" y2="222.17" xlink:href="#linear-gradient"/><linearGradient id="linear-gradient-14" x1="321.9" y1="168.88" x2="321.9" y2="215.06" xlink:href="#linear-gradient"/><linearGradient id="linear-gradient-15" x1="361.06" y1="167.97" x2="361.06" y2="219.21" xlink:href="#linear-gradient"/></defs><path class="cls-1" d="M56.34,70.67l.83-.88h.61q2.32,0,9.39,2.28,1,.39,2.55,4.45c.66.58,1.3,2,1.94,4.3l2.62,13.83h-2L70.71,92h1.44v-.64l.38,4.37L72.42,102l.45,6.08v.15l-.11,3.31q.87,13.41,2.32,23l1.36,3.23H74.7c-.71-.41-1.47-1.85-2.28-4.34l.3.31H74V133a14.45,14.45,0,0,1-2,7.22H70.14q0-4.66-6-13.22l-3.31-6.35q6.21,6,5.78,6a41.36,41.36,0,0,1-.83-5.7v-2.47l-.31-6.31h1.1l-10.94,7.64v-2.06L57,115.94h1.9a72.51,72.51,0,0,0-9.31,6.88,21.27,21.27,0,0,0-4.83,3.57A160.56,160.56,0,0,1,32,143.57v-2.93q1.64-2.46,5.4-14.94L52.92,86.93v1.75a3.55,3.55,0,0,1-2.85,1.22l-.88-.65q3.69-8.55,4.94-10.64l1.22-1.41H54c-1.27,0-3.45-.84-6.54-2.54l-1-.23V72.68a29.6,29.6,0,0,0,5.13.42H55a18.62,18.62,0,0,1,5.28.53v1.18ZM45.09,72.61h2.13v1.78H45.09Zm8.66,38.23H52q2.23-1.25,7.71-3.8l2.78-1.67h1.4v1l-.68,1.56H61.93A13,13,0,0,0,65,106v.22q0-4-2.88-11.44l.3,1q.19-.3-7.22,13Z" transform="translate(-32.01 -68.71)"/><path class="cls-2" d="M123.42,71.43V70.29h1.07q3.49,0,12.31,5.7l-.22,0-1,.72c.66,0,1-1,1-2.92V72.3l1.4-1.41a36.66,36.66,0,0,1,2.82,6v1.78q0,2.82,1.29,2.82v1.21q-1.64,2.52-14.56,6.88a24,24,0,0,0-4.11,2.4h-2.2q2.85-3.61,2.7-2.66a25.66,25.66,0,0,1-2.93.07c3-2.73,5.08-4.27,6.2-4.6V86h.91q-13.53,1.8-19.31,3.69a44.48,44.48,0,0,0-6.23,1.75A6.93,6.93,0,0,1,98.72,94V92.71l.64-2.54v.68h1.41q-2.62,4.75-2.62,6L98.3,98l-1.44,1.4a5.53,5.53,0,0,1,2.62,1.07l5.89.26,23.83-.38a120,120,0,0,1,16.16,1.29v1q-2.25,2.1-10.65,8.56l.5-.61h-1.79l3.5-1.14V111q-12.73,12.09-16.84,14.14-11.79,7.78-37.74,18.7l-7.42,4.25,8.1-10a14.42,14.42,0,0,0,2-1.94v1.37h.76c-.71.25-2.48,1.66-5.29,4.21v-2.35a24.55,24.55,0,0,1,6.27-5.7Q89,131.78,114.72,112c1.12-1.09,1.67-1.51,1.67-1.26h.16l-2.89-.23c0-.4-.26-.64-.76-.72q-3-1.21-16.39-2.24a61.45,61.45,0,0,1-9.76-2.85l-3.62-3.39a89.12,89.12,0,0,0,4.3-13.87L88.3,85c0-.18-.52-.27-1.55-.27V83.44q3.65-2.1,20.37-7.6,11.1-3.51,17.86-3.5C125,72.8,124.46,72.49,123.42,71.43Zm15.82,5.09V75.15H137.6v1.37Z" transform="translate(-32.01 -68.71)"/><path class="cls-3" d="M165.05,69.83h2.24a8.75,8.75,0,0,1,4.79,3.92l1.63,2.66v.38a7.63,7.63,0,0,1-2,4.94h-2l1.71-1.6h1.14l.76.76c0,1-.9,2.9-2.7,5.66Q169.49,91,164.89,98q-7.11,11.63-7.52,17.52v-.69h-1.45l1.87-3.3h2.05a136.21,136.21,0,0,1-7.79,22q-6.27,14.17-10.15,16.95l-1.07-1.1q1.06-2.17,4.07-20.19v-1c0,.1-.63,0-1.9-.34q1.26-2.52,2.55-18.21l2.66-12c0-1.88.48-3.18,1.44-3.92l-.26-6.46a8.86,8.86,0,0,1,3.3-1.56v.91c-6.43-1.67-10.53-2.5-12.27-2.5V82.94q.45-.64,8.85-3.87v1.14H144.6l-.76-.76V79c0-.89,1.63-1.53,4.9-1.94v1.25h.46l-5.36.54V77.2a110.14,110.14,0,0,1,17.1-3.42c1.12,0,3.24-.6,6.39-1.82v.57Zm-14.14,8.4V76.82h-1.37v1.41Zm7.64,31.05h2v1c0,.79-.81,1.52-2.43,2.21V111Z" transform="translate(-32.01 -68.71)"/><path class="cls-4" d="M194.24,70.67l.83-.88h.61q2.32,0,9.39,2.28,1,.39,2.55,4.45,1,.87,1.93,4.3l2.63,13.83h-2L208.6,92h1.45v-.64l.38,4.37-.12,6.27.46,6.08v.15l-.11,3.31q.87,13.41,2.32,23l1.36,3.23H212.6c-.71-.41-1.47-1.85-2.29-4.34l.31.31h1.25V133a14.45,14.45,0,0,1-2.05,7.22H208q0-4.66-6-13.22l-3.31-6.35q6.19,6,5.78,6a41.36,41.36,0,0,1-.83-5.7v-2.47l-.31-6.31h1.1l-10.94,7.64v-2.06l1.44-1.78h1.9a71.82,71.82,0,0,0-9.31,6.88,21.27,21.27,0,0,0-4.83,3.57,160.56,160.56,0,0,1-12.77,17.18v-2.93q1.64-2.46,5.4-14.94l15.51-38.77v1.75A3.55,3.55,0,0,1,188,89.9l-.88-.65q3.69-8.55,4.94-10.64l1.22-1.41h-1.37c-1.27,0-3.45-.84-6.54-2.54l-1-.23V72.68a29.6,29.6,0,0,0,5.13.42h3.42a18.62,18.62,0,0,1,5.28.53v1.18ZM183,72.61h2.12v1.78H183Zm8.66,38.23h-1.78q2.24-1.25,7.71-3.8l2.78-1.67h1.4v1l-.68,1.56h-1.26a12.72,12.72,0,0,0,3.08-1.9v.22q0-4-2.89-11.44l.31,1q.19-.3-7.22,13Z" transform="translate(-32.01 -68.71)"/><path class="cls-5" d="M223.85,70.13h1.06q4.83,0,16.23,4.3.65.57-.72,0s0-.74,0-2.2h2.16c0,.65,1.09,1.58,3.27,2.77l5.1,6.2,2.62,2.39v2.93h-1.79a23.86,23.86,0,0,1,2.32-3v-.68h2.17v.91q0,2-3.84,10.19a92.56,92.56,0,0,0-3.88,25.12v-.64H247q.64-4.23,8.28-19v.76h1.22l-3.88,3.2v-2.25q3.31-5.8,8.63-13.72.94-2.09,3.57-9.77h1.87l.3,11a68.46,68.46,0,0,1-.76,7.3l.19.57-2.62,6.31q0,1.81-3.23,9.54-7,21-7,22.69l-1.48,6.8h-1.48l-10-12.69-1.25-3.31h1.44l-.23,3.15H238.4v-.83q-.5-2.5-.87-23.87v-1.94l.11-9V91.57c.18-.23-.43,1.59-1.82,5.44l0,0v2.58q-4.36,10.91-11.33,25.09-2.28,4.93-7.18,16.87h-2.05q4.83-20.37,4.83-23.41.75-4.83,5.47-22l.11.38h1.18l-4.26,6.35h-1.63v-.88q0-1.07,2.47-6.42l5.13-21.4a22.55,22.55,0,0,0-4.67-2.62Z" transform="translate(-32.01 -68.71)"/><path class="cls-6" d="M330.05,68.73q2.24-.27,7.94,2.58,6.57,3.12,9.73,2.74l.11.91c.11.74,0,1.12-.3,1.14l-.19-1.4-1.06.15.79-.38.92.68,0,.42q.32,2.43-2.81,8.13Q341,94,335.9,114.72l-1.67,5.74-2.13.27,1.06-7.83.12.76,1.48-.19A117.75,117.75,0,0,1,326.89,132a81.32,81.32,0,0,1-4.67,8.66l-1.87.23a122.78,122.78,0,0,1,2-19.57q2-8.33,4.75-18.06l.11.8,1.75-.23a13.92,13.92,0,0,0-1.37,2.55q.24,1.81-5.05,10.11a163.77,163.77,0,0,1-10.91,18.36,4.94,4.94,0,0,1-1.56,1.78l0,.42-2.09.27-.34-2.74-1.29-14a15.65,15.65,0,0,1-1-4.1l-.53-17.75.07.72,1.56-.19c-.83,3.73-2.08,8.12-3.72,13.19l-.35,6.8-.91.12c-1,.12-1.59-.72-1.82-2.55l1.63-.23a55.11,55.11,0,0,1-3.08,12.81q-2.24,3.69-5.13,15.28s0,0,0-.07l-.53.64-1.82.23,1.44-16.19.08.76,1.48-.19-4.18,15.05-2.09.27q3.87-25.39,5.7-45.69a13.49,13.49,0,0,0,.23-3.8l2-.27.23.88-1.56.19L294,94l-.22-.57a17,17,0,0,0,.53-4.82c-.13-4,.25-6,1.14-6.16.07-.18.15,0,.23.57a17.06,17.06,0,0,1-3.77,1.18l-.87.11-1.25-.91a16.26,16.26,0,0,1,4.48-2.85c.13-.13.22,0,.27.53l1-.11-5.28,1.44L290,80.74q2.4-1.11,16.27-8.82l.34.27-.3,0,10.07-.5.8,1.1-.91,5a58.63,58.63,0,0,0-.15,10.3l.07.61,1.26,5.74-1.68.23c-.07-.48.43-2.46,1.52-5.93a13.31,13.31,0,0,0,.31-3.42l2.05-.27q.84,6.81-3.84,25.89l2.32-7.53-1.37,2.7a162,162,0,0,0,8.48-14q5.92-10,7.45-13.38c.61-1.37,1.16-2.07,1.67-2.13,0,.21-.71-.24-2.2-1.33l-.35-.38-.11-.79,1.33-.61.72.26-3.53-3.87Zm-19.47,1.78h1.87V72l-4.72,1.33Zm37.6,9.09h1.55v1.63c-.58,0-1.62.61-3.11,1.83h-2.17A14.76,14.76,0,0,1,348.18,79.6Z" transform="translate(-32.01 -68.71)"/><path class="cls-7" d="M368.89,69.11h2.81a42.06,42.06,0,0,1,7.76,2.39c.61.46,3.15,1.22,7.64,2.28a13.54,13.54,0,0,0,4.29,1.11h.16l1.52-.38a4.08,4.08,0,0,0,1.78,2.73,18.69,18.69,0,0,1,4.64,9.2,19.47,19.47,0,0,1,1,4.64q-3.09,16.26-5.06,21.63a22,22,0,0,1-7.6,8.62v-1h-1.14a20.45,20.45,0,0,1,5.24-2l.65.88v.49a23.79,23.79,0,0,1-5.85,5.4q-3.27,2.16-15.06,11.13-9.15,5.6-10.83,5.59,0-1.41-2.85-3.42a10.11,10.11,0,0,0-1.44-2.36q-7.72-8.32-10.57-15.81a19.38,19.38,0,0,1-1.48-6.31l-4,4.87v-2.66q0-.73,4.41-9.28,1.14-3.69,9.09-22.58Q358,77.75,358,75.65v-1l3.92-.88v.76c-.94-.38-1.41-.82-1.41-1.33V72.19l.84-.72,11.89.64A50.85,50.85,0,0,1,368.89,69.11Zm8.44,12.43v-.91q4.86,4.49,4.86,5.54t-14.44,1.75l.31-.07V86.9l2.24.61v.87a33.62,33.62,0,0,0-6.05,10.53l-3.87,7.68-1.71,5.28h-2l.34-3.69v.69h1.52l-2,4.63h.15v-1s.45,1.26,1.26,3.8q0,.34,4.6,7.83l0-.12h-1.6v.73l-.49-1.6H362l1.64.76q-.35,0,2.28-2,13.91-7.26,16.8-9.46l.23-.61.57.42-4.3,1.71v-1.41q.12-.67,6.43-6.12,1.44-2.24,3.07-10.94l.16-2.44-.12-4.86h1.71c-.2,2.74-.92,4.1-2.16,4.1A27.2,27.2,0,0,0,382,84.24Q378.25,81.54,377.33,81.54Zm20.22,4h2.13l.91,3.27Q398.31,88.8,397.55,85.53Z" transform="translate(-32.01 -68.71)"/><path class="cls-8" d="M442.78,68.73q2.25-.27,8,2.58,6.57,3.12,9.73,2.74l.11.91q.15,1.11-.3,1.14l-.19-1.4-1.07.15.8-.38.91.68,0,.42c.2,1.62-.73,4.33-2.81,8.13q-4.21,10.27-9.31,31L447,120.46l-2.13.27,1.07-7.83.11.76,1.49-.19A117.75,117.75,0,0,1,439.63,132a83.19,83.19,0,0,1-4.68,8.66l-1.86.23a120.47,120.47,0,0,1,2-19.57q2-8.33,4.75-18.06l.11.8,1.75-.23a13.11,13.11,0,0,0-1.37,2.55q.22,1.81-5.05,10.11a165.34,165.34,0,0,1-10.91,18.36,5,5,0,0,1-1.56,1.78l0,.42-2.09.27-.35-2.74-1.29-14a16.07,16.07,0,0,1-1-4.1l-.54-17.75.08.72,1.56-.19q-1.26,5.59-3.73,13.19l-.34,6.8-.91.12c-1,.12-1.6-.72-1.83-2.55l1.64-.23a55.62,55.62,0,0,1-3.08,12.81q-2.24,3.69-5.13,15.28s0,0,0-.07l-.53.64-1.83.23,1.45-16.19.07.76,1.49-.19-4.18,15.05-2.09.27q3.87-25.39,5.7-45.69a13,13,0,0,0,.22-3.8l2-.27.23.88-1.56.19,0-2.44-.23-.57a16.86,16.86,0,0,0,.54-4.82c-.13-4,.25-6,1.14-6.16.07-.18.15,0,.22.57a16.87,16.87,0,0,1-3.76,1.18l-.87.11-1.26-.91A16.37,16.37,0,0,1,407,80.59c.12-.13.21,0,.26.53l1-.11L403,82.45l-.23-1.71q2.4-1.11,16.27-8.82l.34.27-.3,0,10.07-.5.8,1.1-.92,5a60.72,60.72,0,0,0-.15,10.3l.08.61,1.25,5.74-1.67.23q-.12-.72,1.52-5.93a13.78,13.78,0,0,0,.31-3.42l2.05-.27q.84,6.81-3.84,25.89l2.32-7.53-1.37,2.7a162,162,0,0,0,8.48-14q5.93-10,7.44-13.38c.61-1.37,1.17-2.07,1.68-2.13,0,.21-.71-.24-2.21-1.33l-.34-.38-.11-.79,1.33-.61.72.26-3.54-3.87Zm-19.46,1.78h1.86V72l-4.71,1.33Zm37.59,9.09h1.56v1.63q-.87,0-3.12,1.83h-2.16A14.88,14.88,0,0,1,460.91,79.6Z" transform="translate(-32.01 -68.71)"/><path class="cls-9" d="M158.37,169.66v-.73h.69q2.25,0,7.94,3.67l-.15,0-.63.46c.42,0,.63-.63.63-1.88v-.94l.91-.9a22.09,22.09,0,0,1,1.81,3.9v1.15c0,1.21.28,1.81.84,1.81V177q-1.07,1.62-9.39,4.43a15.53,15.53,0,0,0-2.65,1.55H157c1.22-1.55,1.8-2.13,1.74-1.72a16.35,16.35,0,0,1-1.89.05,15.2,15.2,0,0,1,4-3v.74h.59a76.77,76.77,0,0,0-12.46,2.38,29.17,29.17,0,0,0-4,1.13,4.48,4.48,0,0,1-2.47,1.69v-.86l.41-1.64v.44h.91a12.32,12.32,0,0,0-1.69,3.87l.1.74-.94.9a3.57,3.57,0,0,1,1.7.69l3.8.17,15.37-.24a75.68,75.68,0,0,1,10.42.83v.64q-1.46,1.35-6.87,5.51l.32-.39h-1.15l2.25-.73v1q-8.2,7.78-10.86,9.12-7.59,5-24.34,12.06l-4.78,2.74,5.22-6.42a8.14,8.14,0,0,0,1.3-1.25v.88h.49a18.21,18.21,0,0,0-3.41,2.72v-1.52a16,16,0,0,1,4.05-3.67q1.39-1.23,18-14,1.08-1,1.08-.81h.09l-1.86-.14c0-.26-.16-.42-.49-.47q-2-.78-10.57-1.44a40.39,40.39,0,0,1-6.3-1.84l-2.32-2.18a58.7,58.7,0,0,0,2.77-8.95l.56-1.55c0-.11-.34-.17-1-.17v-.83q2.35-1.35,13.14-4.91a40.75,40.75,0,0,1,11.53-2.25C159.38,170.54,159,170.35,158.37,169.66Zm10.2,3.29v-.89h-1.06V173Z" transform="translate(-32.01 -68.71)"/><path class="cls-10" d="M204.51,168.93q4.26,7.51,5.07,9.36l-.46.47h-.49a45.54,45.54,0,0,0-9-1.18l-1.44-.05q-1.2,2.24-3.83,8c-.67,1-1,1.6-1,1.67.25,0,.37.36.37,1.08v0h-.86l4.12-2,.52.93q0,1.23-5.94,9.24c-.53,1.23-2,3-4.41,5.42s-3.9,4.23-4.36,5.24l-6.82,9.27v-2a113.52,113.52,0,0,0,4.64-12.11q3-8.29,3-11.26l-2,2.38h-1v-.56q0-2,4.41-10.57l.54-1.79h-1.61l-2.36-.1a55.83,55.83,0,0,0-12.67,1.45q.71-1.25,4.8-3.72a63.07,63.07,0,0,1,9.71-5.55v.69H184l-4.43,1v-1.13l6.62-1.84a1.43,1.43,0,0,1-.86,1.5V172h-.52q10.71-2.13,15.13-2.13h.39c.87.21,1.3.4,1.3.56h-1.13v-1.35h1.13l1.52,2.43C203.31,169.78,203.77,168.93,204.51,168.93Z" transform="translate(-32.01 -68.71)"/><path class="cls-11" d="M209.09,168q5.29,1,12.77,1.84,8.49,1.59,9.69,2.28.9.74,5.39,1.59c1.65.21,2.48.71,2.48,1.5l-.52.09v-.63l5,1.64v.56l-6.08,6.28q-12,9.85-18.11,10.91v-.52q1.71,0,10.54,8.36a2.92,2.92,0,0,1,.73,1.84h-1c-1.21-1.09-1.71-1.64-1.52-1.64v-.52q2.39,4.08,11.28,16.33v.88q-1.31-.31-20.52-11.27l-3.87-2.41v-.85l2.45-.2a72.72,72.72,0,0,1-7.09-7.82h.54q-.95,1-3.23,6.72-7.53,16.23-8.56,16.28h-.83q2.43-14.69,3.11-18v.47h1a8,8,0,0,1-1.64,3.35h-1q1-10.17,2.16-13a89.64,89.64,0,0,0,3.43-12.55,15.81,15.81,0,0,0,1.69-4.47,11.72,11.72,0,0,1-1.72-1.44v-.57l1.55-.51v.71h-.44l-1.89-.1v-.95l4.31-1.48v.47l-3.18-1v-1l5.86.17c0,.29-.92.21-2.75-.25Zm2.21,26.43-1.28,1,.25.29A6,6,0,0,0,211.3,194.4ZM226,180.32V178.9l.3,1.92-.71.53q-1.42-.9-7.41-1.54-3.24,5.83-5,9.61a22.38,22.38,0,0,0,5.47-1.67,37.87,37.87,0,0,1,5.69-3v1c-.41.48-.62.48-.62,0q3.81-2.77,4-3.68Z" transform="translate(-32.01 -68.71)"/><path class="cls-12" d="M256,168.63h1.44a5.63,5.63,0,0,1,3.09,2.53l1.06,1.71v.25a4.89,4.89,0,0,1-1.28,3.18h-1.3l1.11-1h.73l.49.5c0,.65-.58,1.87-1.74,3.65a26.11,26.11,0,0,1-3.7,7.38q-4.59,7.5-4.86,11.3v-.44h-.93l1.2-2.14h1.33a86.84,86.84,0,0,1-5,14.17c-2.69,6.1-4.88,9.74-6.54,10.94l-.69-.71c.46-.94,1.33-5.27,2.62-13v-.66c0,.06-.4,0-1.22-.22q.81-1.62,1.64-11.75l1.72-7.74a3,3,0,0,1,.93-2.53l-.17-4.17a5.83,5.83,0,0,1,2.13-1v.59a44,44,0,0,0-7.92-1.62v-.71q.3-.42,5.71-2.5v.73h-3l-.49-.49v-.27c0-.57,1-1,3.16-1.25v.81h.29l-3.45.35v-1.08a70.75,70.75,0,0,1,11-2.21,14.41,14.41,0,0,0,4.12-1.18v.37Zm-9.12,5.42v-.91H246v.91Zm4.92,20h1.28v.66c0,.51-.52,1-1.57,1.42v-.95Z" transform="translate(-32.01 -68.71)"/><path class="cls-13" d="M261.28,217v2.5c-.37,1.81-.84,2.72-1.39,2.72h-.72v-.61C259.22,220.89,259.93,219.35,261.28,217Zm7.7-47.26v-.89q7.8,1.72,10.47,2l.32.44V172l-1.4.44v-.74h.17l3,.1v.71a25.66,25.66,0,0,0-2.45,2.84q0,1.65-2.94,6.4-3.66,8.15-3.65,8.85a71.61,71.61,0,0,1,11.32-6.81,38.37,38.37,0,0,0,5.86-4.32l-.17.05c0-.77.56-1.38,1.67-1.84v.25q-2.62-3.87-2.63-5.37l2.72,2v1.15a44.34,44.34,0,0,0-3.18-4h1.39l5.32,2.18a59.28,59.28,0,0,1,6.38,3.44l.1,0c1.75.59,2.62,1.19,2.62,1.81l-.42.42h-.39a3.92,3.92,0,0,1-1.79-.78h1.42a21.67,21.67,0,0,1,2.55,1.32l2.31,2.38v.76h-1a24.36,24.36,0,0,0-3.26-.79h.56v-.68a2.81,2.81,0,0,1,1,.83v.54q-25.08,9.85-28.34,11l-.42.14v-.44q6.87,5.33,8.6,5.91a9.65,9.65,0,0,1,3.41,2.65v1.52a11.25,11.25,0,0,0-4.61-2.35,17,17,0,0,1,3.58,4.19q6.21,9.27,9.27,14.56v1a164.38,164.38,0,0,1-16.94-9.19,49.18,49.18,0,0,1-6.2-4.42v-.85l4.21.49a45,45,0,0,1-5.51-5.89c-.75-.83-1-1.25-.64-1.25q-1.89,3.7-6.89,12.48l-3,6.35h-1.1v-.61a102.45,102.45,0,0,1,1.84-11.11,51.93,51.93,0,0,0,2-12.26v.32h1.15c0,.3-.33.44-1,.44a10.66,10.66,0,0,1-2.5-1.88,27,27,0,0,0,1.64-7.55c0-1.12.73-4.09,2.18-8.93l.27-1.89c0-1.17-.2-1.76-.61-1.76l-.54-.69v-.56l2.11-.69v.69c-1.29-.07-1.94-.34-1.94-.81v-.44l4.66-1.3v.39Z" transform="translate(-32.01 -68.71)"/><path class="cls-14" d="M302.37,212.44v1.76l-.47.86h-1.15v-.71ZM343,168.88V170c-.52,0-2.21,1.08-5.05,3.23l-3.36,2.21h-.88l-.22-.76h1c0,.46-.51.69-1.52.69a5.07,5.07,0,0,1-1.13.66c0,.34-1,.8-2.87,1.37h-.39l-.17-.12-5.17,1.05L319,186.18h-.86l15-4.51-14.93,6.08V187h-.64a118.68,118.68,0,0,1,12.58-1.79l2.79-.19V186l-19,9.78-1.07,2.65V198h-1.16s.64-.61,1.92-1.79h1q0,.81-2.82,6.4h-.9q20-3.87,24.83-5.39c0-.13.56-.31,1.64-.54v.93a32.12,32.12,0,0,1-6.59,4.19l-3.41,1.74-.29.32v-.91l2.94-1.27,1.08-.17a1.31,1.31,0,0,1,1.2.9,13.33,13.33,0,0,1-4.66,2.48Q313.84,209.08,310,211a40.16,40.16,0,0,0-7.67,3.31h-.94v-.64a33.51,33.51,0,0,0,1.43-7.4l2.72-10,.51-4.07c.26,0,.51-.75.74-2.26v.13h1.15v.14h-1.54a40,40,0,0,0,1.86-10.12h-1.64v-1l1.71-.56v-.83q-3.18.32-6,.32l-.1-.08h-.81l4.44-7.4h.9a.73.73,0,0,1-.83-.81l.39-.39h1.3c0,.14-.09.22-.27.22l2.06.14,5.69-.22,6.64.15,7.87-.39,5.15.24a8.76,8.76,0,0,0,2.6-.46Zm-7.4.09H337V170l-1.1.15h-1.6V169.1Z" transform="translate(-32.01 -68.71)"/><path class="cls-15" d="M348.87,168q5.29,1,12.78,1.84,8.48,1.59,9.68,2.28.9.74,5.39,1.59c1.65.21,2.48.71,2.48,1.5l-.52.09v-.63l5,1.64v.56l-6.08,6.28q-12,9.85-18.11,10.91v-.52q1.71,0,10.54,8.36a2.93,2.93,0,0,1,.74,1.84h-1c-1.2-1.09-1.71-1.64-1.52-1.64v-.52q2.39,4.08,11.28,16.33v.88q-1.29-.31-20.52-11.27l-3.87-2.41v-.85l2.45-.2a71.4,71.4,0,0,1-7.08-7.82h.54q-1,1-3.24,6.72-7.53,16.23-8.56,16.28h-.83q2.43-14.69,3.11-18v.47h1a8,8,0,0,1-1.64,3.35h-1q1-10.17,2.16-13a89.64,89.64,0,0,0,3.43-12.55,15.81,15.81,0,0,0,1.69-4.47,11.68,11.68,0,0,1-1.71-1.44v-.57l1.54-.51v.71h-.44l-1.89-.1v-.95l4.32-1.48v.47l-3.19-1v-1l5.86.17c0,.29-.92.21-2.75-.25Zm2.21,26.43-1.27,1,.24.29A6,6,0,0,0,351.08,194.4Zm14.68-14.08V178.9l.3,1.92-.71.53q-1.43-.9-7.41-1.54-3.22,5.83-5.05,9.61a22.24,22.24,0,0,0,5.47-1.67,38.36,38.36,0,0,1,5.69-3v1c-.41.48-.61.48-.61,0q3.8-2.77,4-3.68Z" transform="translate(-32.01 -68.71)"/></svg>