<?xml version="1.0" encoding="UTF-8"?>
<svg xmlns="http://www.w3.org/2000/svg" viewBox="0 0 972.31 566.85">
  <defs>
    <style>
      .cls-1 {
        stroke-width: 4px;
      }

      .cls-1, .cls-2, .cls-3, .cls-4, .cls-5, .cls-6, .cls-7, .cls-8, .cls-9, .cls-10, .cls-11 {
        stroke-miterlimit: 10;
      }

      .cls-1, .cls-2, .cls-5 {
        fill: none;
      }

      .cls-1, .cls-5, .cls-7 {
        stroke: #000;
      }

      .cls-12, .cls-13, .cls-14, .cls-15 {
        stroke-width: 0px;
      }

      .cls-2 {
        stroke-width: 10px;
      }

      .cls-2, .cls-6, .cls-8, .cls-11 {
        stroke: #231f20;
      }

      .cls-13 {
        fill: #141414;
      }

      .cls-3 {
        fill: #32385e;
        stroke: #262262;
      }

      .cls-3, .cls-4, .cls-9, .cls-10 {
        stroke-width: 3px;
      }

      .cls-4 {
        stroke: #f7941d;
      }

      .cls-4, .cls-9 {
        fill: #fbb040;
      }

      .cls-5, .cls-7 {
        stroke-width: 2px;
      }

      .cls-6 {
        fill: #3c2415;
      }

      .cls-7 {
        fill: #550002;
      }

      .cls-14 {
        fill: #ff0007;
        opacity: .5;
      }

      .cls-8 {
        fill: #f7941d;
      }

      .cls-9 {
        stroke: #9e5f13;
      }

      .cls-10 {
        fill: #a97c50;
        stroke: #3c2415;
      }

      .cls-15 {
        fill: #517321;
      }

      .cls-11 {
        fill: #080614;
      }
    </style>
  </defs>
  <g id="Layer_1" data-name="Layer 1">
    <rect class="cls-11" x="332.53" y="69.54" width="304.94" height="474.51"/>
    <rect class="cls-15" x="5" y="5.21" width="315.39" height="538.84"/>
    <rect class="cls-15" x="635.9" width="331.41" height="544.05"/>
    <rect class="cls-15" x="452.74" y="-442.53" width="66.83" height="962.31" transform="translate(524.78 -447.53) rotate(90)"/>
    <rect class="cls-6" x="320.39" y="69.54" width="14.45" height="474.51"/>
    <polygon class="cls-6" points="320.39 69.54 139.13 204.83 139.13 544.05 320.39 544.05 320.39 69.54"/>
    <path class="cls-8" d="m188.94,475.65c3.05,5.51-1.71,15.3-9.15,16.37-5.82.83-12.69-3.78-12.9-9.86-.19-5.59,5.33-9.73,10.15-10.68,4.13-.82,9.77.31,11.91,4.18Z"/>
    <polygon class="cls-4" points="376.28 424.23 335.84 424.23 335.84 340.01 376.28 346.44 376.28 424.23"/>
    <path class="cls-9" d="m401.49,350.52c-87.03-7.2-106.47,188.84-.98,188.75,132.83-.11,74.3-181.3.98-188.75Z"/>
    <polygon class="cls-3" points="336.66 496.3 336.66 544.05 509.54 544.05 464.15 512.96 336.66 496.3"/>
    <polygon class="cls-10" points="397.44 477.93 443.52 475.52 437.6 543.49 420.48 544.73 397.44 477.93"/>
    <polygon class="cls-9" points="453.16 474.78 383.49 480.1 399.99 402.54 439.86 430.11 453.16 474.78"/>
    <circle class="cls-12" cx="400.51" cy="290.44" r="5.74"/>
    <g>
      <ellipse class="cls-10" cx="381.19" cy="315.73" rx="45.34" ry="59.91"/>
      <circle class="cls-12" cx="400.51" cy="315.73" r="5.74"/>
      <line class="cls-5" x1="358.23" y1="295.58" x2="378.17" y2="307.82"/>
      <path class="cls-1" d="m368.2,288.94c2.78,3.34,9.11,10.02,19.54,13.83,7.68,2.8,14.45,2.91,18.51,2.66"/>
      <path class="cls-7" d="m373.12,345.31c-1.23,3.3-4.47,7.33-8.51,7.45-5.47.16-9.82-6.96-10.37-12.76-.76-8.06,5.54-16.67,10.37-16.22,4.62.43,7.26,9.09,7.98,11.43.91,3,1.94,6.34.53,10.1Z"/>
      <path class="cls-13" d="m338.05,297.23l22.31-19.72c-1.68-2.48-3.37-4.96-5.05-7.45,13.37-9.96,30.01-12.65,42.81-6.38,10.34,5.06,16.01,14.9,16.75,16.22,3.42,6.09,4.53,11.8,4.94,15.36-1.06,1.85-2.12,3.71-3.18,5.56,2.16,7.92,4.32,15.84,6.49,23.76,3.52-3.29,11.37-11.52,14.62-24.73,2.23-9.07,1.39-16.78.53-21.27-2.21-3.82-5.3-8.29-9.57-12.76-8.37-8.77-17.41-13.47-23.4-15.95-6.22-2.58-15.93-5.6-27.92-5.32-4.92.12-9.31.76-13.03,1.6-3.1.76-9.2,2.72-14.89,7.98-4.17,3.85-6.48,7.97-7.71,10.64-1.7,3.34-3.98,8.82-4.79,15.95-.8,7.08.19,12.9,1.09,16.53Z"/>
      <ellipse class="cls-14" cx="381.19" cy="320.71" rx="4.05" ry="33.92" transform="translate(-40.53 585.87) rotate(-72.24)"/>
    </g>
  </g>
  <g id="Layer_3" data-name="Layer 3">
    <rect class="cls-2" x="5" y="5.21" width="962.31" height="538.84"/>
  </g>
</svg>