<svg xmlns="http://www.w3.org/2000/svg" viewBox="0 0 972.31 548.84"><defs><style>.cls-1{fill:#ed1c24;}.cls-1,.cls-2,.cls-6{stroke:#3c2415;}.cls-1,.cls-10,.cls-11,.cls-2,.cls-3,.cls-4,.cls-5,.cls-6,.cls-7,.cls-9{stroke-miterlimit:10;}.cls-1,.cls-10,.cls-2,.cls-3,.cls-4,.cls-5,.cls-6,.cls-7,.cls-9{stroke-width:5px;}.cls-2{fill:#a97c50;}.cls-3{fill:#fff283;}.cls-3,.cls-4{stroke:#d7df23;}.cls-4{fill:#fff200;}.cls-5{fill:#58595b;stroke:#414042;}.cls-11,.cls-6,.cls-7,.cls-9{fill:none;}.cls-11,.cls-7{stroke:#231f20;}.cls-8{fill:#231f20;}.cls-9{stroke:#fbb040;}.cls-10{fill:#d1d3d4;stroke:#a7a9ac;}.cls-11{stroke-width:10px;}</style></defs><g id="Layer_2" data-name="Layer 2"><rect class="cls-1" x="5" y="3.08" width="962.31" height="540"/><polygon class="cls-2" points="211.07 512.14 177.7 543.08 246.28 543.08 211.07 512.14"/><polygon class="cls-2" points="765.72 512.14 732.35 543.08 800.93 543.08 765.72 512.14"/><polygon class="cls-3" points="353.73 339.84 624.87 340.66 664.35 543.08 314.25 543.08 353.73 339.84"/><polygon class="cls-4" points="353.73 339.84 177.7 482.82 246.28 543.08 314.25 543.08 353.73 339.84"/><polygon class="cls-4" points="624.9 339.84 800.93 482.82 732.35 543.08 664.38 543.08 624.9 339.84"/><path class="cls-5" d="M304.22,291.82l342.87,7.66A43.86,43.86,0,0,1,620.63,377c2.27,7.12,8,28-1.75,38.73-12.24,13.4-47.64,9.67-82.46-19.53l-112.85-4.34C401.39,423,364,429.22,344,414.25c-18.91-14.17-16.85-43.27-16.63-45.77-4.74-.83-19.06-4-28.21-16.43C287.4,336.06,288.91,311.22,304.22,291.82Z" transform="translate(5 3.08)"/><ellipse class="cls-2" cx="491.08" cy="272.76" rx="134.54" ry="148.14"/><path class="cls-6" d="M458.24,377c3.1-18.12,19.84-29.15,34.35-26,11.13,2.38,20.16,12.9,21.7,26" transform="translate(5 3.08)"/><line class="cls-7" x1="470.98" y1="318.99" x2="422.15" y2="295"/><line class="cls-7" x1="506.41" y1="320.12" x2="551.99" y2="293.87"/><ellipse class="cls-8" cx="448.77" cy="331.73" rx="5.43" ry="13.02"/><ellipse class="cls-8" cx="524.72" cy="333.31" rx="5.43" ry="13.02"/><path class="cls-9" d="M352.37,303.91l41.55,15.71c5.88,19.15,22.46,31.95,40,31.82,18-.12,29.42-13.82,31.11-15.91l1.92-8.44,33.28,1.56,2.89,6.88c2.5,3.22,12.48,15.28,28.69,17.12,19,2.15,38.74-10.54,47.51-31.83l41.29-20.25" transform="translate(5 3.08)"/><path class="cls-10" d="M264.37,291.82v27.67h-67a17.43,17.43,0,0,1-5.08,23.37c-7.95,5.21-19.32,2.63-24.38-6.1-6.91,15.07-19.68,21.13-25.4,18.29-5.52-2.74-8.27-15.62-2-29.53-11.68.69-20.55-4.82-21.33-10.1-.85-5.73,7.36-14.84,21.33-15.94-10.75-6.57-17.16-16.26-15.24-22.66,2.34-7.77,17.89-14,36.58-7.14a19.44,19.44,0,0,1,36.58,13.16Z" transform="translate(5 3.08)"/><path class="cls-10" d="M698,291.82v27.67h67a17.44,17.44,0,0,0,5.08,23.37c8,5.21,19.32,2.63,24.39-6.1,6.91,15.07,19.67,21.13,25.4,18.29,5.52-2.74,8.26-15.62,2-29.53,11.68.69,20.56-4.82,21.34-10.1.84-5.73-7.36-14.84-21.34-15.94,10.76-6.57,17.16-16.26,15.24-22.66-2.33-7.77-17.89-14-36.58-7.14A19.44,19.44,0,0,0,764,282.84Z" transform="translate(5 3.08)"/><path class="cls-5" d="M352.37,261.63c2.88,1.35,18.8,8.5,35.76,1.44,16.56-6.89,27.4-24.53,27-44.36-2.69,24.32,14.65,44.29,33,45.81,20.08,1.66,42.08-18.63,39.78-45.57-1.2-14.1,15.25,35.68,38.34,46.29,18,8.27,41.12-2.25,60.24-14.81-11,26,2.06,54.5,23.67,62.55,23.17,8.64,53.89-7,60-36.89a58.64,58.64,0,0,0-1.45-112.84C672.5,141.71,664.6,121,650,112.61c-20.39-11.71-55.54-.49-68.72,32.56C582.47,111.66,560,82,528.46,74.28c-33.58-8.17-69.19,10.63-81.74,44.12-27.18-31.84-69.41-38.23-95.48-20.25-24.52,16.9-25.92,49.28-26,53.53-33.39,0-59.27,24.35-60.77,51.35-1.08,19.57,10.73,39,29.66,49.92-11,16.1-13.63,35.67-5.78,50.63,13.56,25.86,55.67,32.69,70.75,15C369.42,306.44,367.33,282.33,352.37,261.63Z" transform="translate(5 3.08)"/></g><g id="Layer_3" data-name="Layer 3"><rect class="cls-11" x="5" y="5" width="962.31" height="538.84"/></g></svg>