<svg xmlns="http://www.w3.org/2000/svg" viewBox="0 0 972.31 548.84"><defs><style>.cls-1{fill:#100a20;}.cls-1,.cls-16,.cls-2,.cls-3,.cls-4{stroke:#231f20;}.cls-1,.cls-10,.cls-11,.cls-13,.cls-14,.cls-15,.cls-16,.cls-2,.cls-3,.cls-4,.cls-6,.cls-7,.cls-8,.cls-9{stroke-miterlimit:10;}.cls-2{fill:#262235;}.cls-4,.cls-9{fill:#fff283;}.cls-4,.cls-6,.cls-7,.cls-8,.cls-9{stroke-width:5px;}.cls-5{fill:#3a3242;}.cls-14,.cls-6{fill:#a97c50;stroke:#3c2415;}.cls-7{fill:#fff200;}.cls-7,.cls-9{stroke:#d7df23;}.cls-8{fill:#58595b;stroke:#414042;}.cls-10{fill:#e6e7e8;stroke:#2e3192;}.cls-10,.cls-11,.cls-16{stroke-width:10px;}.cls-11,.cls-16{fill:none;}.cls-11{stroke:#ed1c24;}.cls-12{fill:#141414;}.cls-13{fill:#bfb399;stroke:#877e6c;}.cls-15{fill:#32385e;stroke:#262262;}</style></defs><g id="Layer_13" data-name="Layer 13"><rect class="cls-1" x="5" y="3.66" width="962.32" height="538.84"/><polygon class="cls-2" points="967.32 83.09 967.32 544.6 892.72 544.6 888.59 542.5 749.97 472.15 730.77 462.4 730.76 462.4 729.61 461.81 729.6 461.81 693.63 443.56 680.56 436.92 641.36 417.03 612.12 402.19 589.55 390.73 589.25 382.62 589.01 375.78 588.27 355.7 588.24 354.69 588.2 353.68 588.05 349.52 583.53 224.67 583.53 199.2 635.94 197.44 635.94 78.87 619.61 73.21 619.61 55.84 635.94 61.5 635.94 11.22 610.16 8.25 618.45 3.66 619.5 3.08 718.01 3.08 718.52 3.66 753.65 43.66 816.38 45.1 838.87 57.97 848.17 63.29 885.98 54.89 914.33 76.66 959.01 82.08 967.32 83.09"/><polygon class="cls-2" points="540.01 123.01 576.48 116.48 651.65 139.09 651.65 183.81 651.65 385.57 491.63 305.14 491.63 200.46 536.29 183.81 540.01 123.01"/><polygon class="cls-2" points="303.46 175.76 316.59 171.79 316.59 151.67 339.9 153.82 339.9 139.58 328.8 136.5 333.8 129.84 358.21 129.2 388.74 142.02 388.74 130.88 415.93 129.16 436.47 138.35 431.47 127.96 447.57 127.43 534.14 165.52 511.94 162.05 511.94 167.62 483.08 155.26 455.34 156.83 449.22 289.83 300.89 208.22 303.46 175.76"/><polygon class="cls-2" points="437.29 152.79 479.64 154.13 566.66 171.37 566.66 178.37 477.33 162.88 444.02 160.31 437.29 159.79 437.29 152.79"/><polygon class="cls-2" points="441.14 246.12 444.02 157.77 477.33 160.33 552.8 175.84 548.18 265.2 510.45 251.31 481.18 252 480.41 274.68 441.14 283.64 441.14 246.12"/><polygon class="cls-3" points="350.84 145.87 350.84 157.77 361.94 162.82 361.94 149.06 350.84 145.87"/><polygon class="cls-3" points="325.25 169.9 325.25 181.79 336.36 186.85 336.36 173.09 325.25 169.9"/><polygon class="cls-4" points="374.59 202.03 374.59 213.93 385.69 218.98 385.69 205.22 374.59 202.03"/><polygon class="cls-3" points="406.42 161.43 406.42 173.32 417.52 178.37 417.52 164.62 406.42 161.43"/><polygon class="cls-4" points="561.11 149.29 561.11 161.19 572.21 166.24 572.21 152.48 561.11 149.29"/><polygon class="cls-4" points="651.65 28 651.65 39.9 662.75 44.95 662.75 31.2 651.65 28"/><polygon class="cls-3" points="651.65 115.02 651.65 126.91 662.75 131.97 662.75 118.21 651.65 115.02"/><polygon class="cls-3" points="759.79 110.48 759.79 122.38 770.89 127.43 770.89 113.67 759.79 110.48"/><polygon class="cls-3" points="788.16 110.48 788.16 122.38 799.26 127.43 799.26 113.67 788.16 110.48"/><polygon class="cls-4" points="738.66 182.99 738.66 221.62 792.02 253.03 792.02 203.35 738.66 182.99"/><polygon class="cls-3" points="839.94 118.35 839.94 156.98 876.83 173.4 876.83 128.71 839.94 118.35"/><polygon class="cls-3" points="929.39 225.68 929.39 264.31 966.28 280.72 966.28 236.04 929.39 225.68"/><polygon class="cls-3" points="929.39 389.05 924.56 521.22 964.21 544.38 967.32 379.97 929.39 389.05"/><polygon class="cls-3" points="841.91 308.21 841.91 346.84 878.8 363.25 878.8 318.57 841.91 308.21"/><polygon class="cls-3" points="739.85 323.13 739.85 420.71 776.73 462.17 776.73 349.3 739.85 323.13"/><polygon class="cls-3" points="699.53 44.95 699.53 56.85 710.63 61.9 710.63 48.14 699.53 44.95"/><polygon class="cls-3" points="425.44 179.78 449.7 182.99 449.7 198.37 424.54 198.37 425.44 179.78"/><polygon class="cls-2" points="104.05 314.19 5 375.72 5 138.1 22.45 139.12 28.94 166.92 31.04 175.91 31.66 178.51 32.58 182.5 33.05 184.5 36.43 198.98 79.13 208.67 86.82 210.42 100.9 295.2 100.96 295.57 101.91 301.28 104.05 314.19"/><polygon class="cls-2" points="244.42 205.18 101.91 301.28 99.54 302.88 98.31 297.25 97.8 294.88 79.13 208.67 72.05 176.01 71.52 173.51 71.13 171.73 41.26 173.32 31.66 178.51 13.26 188.43 12.5 188.84 12.47 188.67 11.57 183.32 5 185.02 5 180.14 28.94 166.92 74.59 141.71 91.85 140.41 88.23 151.28 108.63 139.84 137.94 138.46 139.77 149.51 170.23 133.34 196.4 131.21 202.83 137.24 191.49 141.56 193.83 155.68 218.35 150.9 221.66 170.85 236.33 173.3 244.29 204.68 244.42 205.18"/><polygon class="cls-2" points="90.87 172.63 83.86 173.89 83.78 173.9 72.05 176.01 48.65 180.22 33.05 184.5 5 192.21 5 183.71 31.04 175.91 44.75 171.81 89.72 165.69 90.87 172.63"/><polygon class="cls-2" points="107.14 295.84 101.46 295.26 100.9 295.2 97.8 294.88 63.75 291.39 59.2 269 27.87 271.63 5 282.5 5 190.96 12.47 188.67 13.26 188.43 32.58 182.5 48.23 177.7 71.52 173.51 83.36 171.38 83.86 173.89 100.96 258.63 106.51 292.05 107.14 295.84"/><polygon class="cls-3" points="180.85 149.04 182.81 160.83 171.79 167.1 169.53 153.46 180.85 149.04"/><polygon class="cls-3" points="212.1 169.96 214.06 181.75 203.05 188.02 200.78 174.38 212.1 169.96"/><polygon class="cls-4" points="164.75 207.4 166.7 219.19 155.69 225.46 153.42 211.82 164.75 207.4"/><polygon class="cls-3" points="124.09 170.75 126.05 182.54 115.04 188.81 112.77 175.17 124.09 170.75"/><polygon class="cls-4" points="34.12 198.37 36.08 210.16 25.06 216.43 22.8 202.79 34.12 198.37"/><polygon class="cls-5" points="966.74 542.5 5.58 542.5 5.58 356.43 245 196.49 301.67 198.37 966.74 542.5"/><g id="Layer_14" data-name="Layer 14"><polygon class="cls-6" points="504.46 397.3 490.08 397.3 493.27 384.74 474.89 378.35 465.3 406.32 479.69 412.72 504.46 432.7 504.46 397.3"/><polyline class="cls-7" points="531.64 450.35 544.09 388.81 502.07 403.71 499.96 427.9 531.64 450.35"/><circle class="cls-6" cx="596.49" cy="315.71" r="77.61"/><path class="cls-8" d="M656.34,338.1a19.47,19.47,0,0,1-38.64,4.5c-.29,19.34-13.38,31.12-22.37,30.08-7.21-.83-14.16-10.17-15.84-22.33a23.58,23.58,0,0,1-46.85,4.81c-1.52,1.06-12,8-24.61,4.68-11.36-3-19.88-13.11-21.34-25.5-15.46.22-26.32-12.38-24.83-23.77,1.16-8.85,9.74-16.81,20.95-18.11a29.27,29.27,0,0,1-6.76-56.27c-3.33-10.47-.68-21.31,6.22-26.49,9.61-7.22,28.28-4,37.19,11.53a35.43,35.43,0,0,1,22.2-38.89,36.37,36.37,0,0,1,44.6,16.4C598,181,619.11,175,633.59,182.16c13.62,6.74,16.49,22.76,16.84,24.87,17-2.29,31.83,8.09,34.38,21.43,1.86,9.66-2.87,20.12-11.79,26.86,11,.88,20.06,7.78,22.53,16.76,3.27,11.83-5.22,26.18-20.37,29.81,10.28,8.32,14.69,21.5,11.24,33.51a9.48,9.48,0,0,1-3,4.8C678.12,345,667.6,344,656.34,338.1Z" transform="translate(6.16 3.08)"/><polygon class="cls-9" points="539.58 384.52 658.29 407.61 691.15 544.22 520.32 544.22 539.58 384.52"/><polygon class="cls-6" points="703.63 441.31 751.5 422.95 765.88 435.37 764.37 461.32 702.38 513.94 703.63 441.31"/><polygon class="cls-7" points="640.74 404.2 596.49 481.27 702.38 524.8 720.1 437.92 640.74 404.2"/><ellipse class="cls-6" cx="771.22" cy="436.61" rx="40.61" ry="32.64" transform="translate(198.65 1110.88) rotate(-78.75)"/><path class="cls-10" d="M880.4,385.73c11.47,8.44,45.16,33.22,40,67.34-3.09,20.5-19.37,38.91-39.13,44.79-32.7,9.74-61.52-18.85-71.87-29.11C782.42,442,759.32,391.85,778,370S849.71,363.16,880.4,385.73Z" transform="translate(6.16 3.08)"/><polyline class="cls-11" points="809.89 465.79 876.65 465.79 886.55 388.81"/><ellipse class="cls-6" cx="778.02" cy="402.44" rx="17.76" ry="9.93" transform="translate(-46.77 128.39) rotate(-8.91)"/></g><circle class="cls-12" cx="268.5" cy="186.83" r="7.76"/><polygon class="cls-13" points="277.14 189.07 285.19 192.99 281.16 201.55 277.14 189.07"/><circle class="cls-13" cx="271.87" cy="198.87" r="11.5"/><ellipse class="cls-14" cx="246.78" cy="207.09" rx="1.8" ry="4.29" transform="translate(-68.28 185.55) rotate(-35.62)"/><polygon class="cls-15" points="263.19 206.42 253.55 210.38 253.55 214.69 271.87 213.04 283.37 220.18 301.08 221.45 296.13 212.49 285.14 212.49 280.54 206.42 263.19 206.42"/><line class="cls-15" x1="271.87" y1="213.04" x2="280.54" y2="206.42"/><ellipse class="cls-14" cx="293.99" cy="215.54" rx="3.64" ry="6.68" transform="translate(-64.37 214.63) rotate(-35.62)"/><polygon class="cls-14" points="270.94 196.49 280.98 203.21 279.85 204.79 268.59 199.53 270.94 196.49"/><circle class="cls-14" cx="281.88" cy="205.08" r="2.36"/><polygon class="cls-13" points="265.64 190.2 274.43 195.88 270.03 201.55 263.81 195.88 265.64 190.2"/></g><g id="Layer_10" data-name="Layer 10"><rect class="cls-16" x="5" y="5" width="962.31" height="538.84"/></g></svg>