<svg xmlns="http://www.w3.org/2000/svg" viewBox="0 0 972.31 548.84"><defs><style>.cls-1{fill:#b07320;}.cls-2{fill:#a97c50;stroke:#3c2415;}.cls-10,.cls-11,.cls-12,.cls-13,.cls-14,.cls-17,.cls-18,.cls-2,.cls-3,.cls-4,.cls-5,.cls-6,.cls-7,.cls-8,.cls-9{stroke-miterlimit:10;}.cls-14,.cls-2,.cls-3,.cls-4,.cls-5,.cls-6,.cls-7{stroke-width:5px;}.cls-3{fill:#fff200;}.cls-3,.cls-4{stroke:#d7df23;}.cls-4{fill:#fff283;}.cls-5{fill:#58595b;stroke:#414042;}.cls-12,.cls-14,.cls-18,.cls-6,.cls-7{fill:none;}.cls-6{stroke:#fbb040;}.cls-10,.cls-17,.cls-18,.cls-7,.cls-9{stroke:#231f20;}.cls-8{fill:#d1d3d4;stroke:#a7a9ac;}.cls-13,.cls-8{stroke-width:2px;}.cls-9{fill:#080614;}.cls-10,.cls-17{fill:#3c2415;}.cls-11{fill:#bfb399;stroke:#877e6c;}.cls-11,.cls-12{stroke-width:3px;}.cls-12,.cls-13,.cls-14{stroke:#000;}.cls-13{fill:#550002;}.cls-15{fill:#141414;}.cls-16{fill:#ff0007;opacity:0.5;}.cls-17,.cls-18{stroke-width:10px;}</style></defs><g id="Layer_4" data-name="Layer 4"><rect class="cls-1" x="5" y="3.66" width="962.31" height="538.84"/><g id="Layer_5" data-name="Layer 5"><polygon class="cls-2" points="91.74 455.48 77.26 505.85 120.24 504.58 125.03 478.6 91.74 455.48"/><polygon class="cls-2" points="354.6 473.96 358.47 504.58 376.71 504.58 368.18 466.5 354.6 473.96"/><polygon class="cls-3" points="334.17 302.84 395.24 451.64 354.6 473.96 334.17 302.84"/><polygon class="cls-3" points="147.1 308.34 57.07 431.4 125.03 478.6 147.1 308.34"/><polygon class="cls-4" points="147.1 297.36 331.61 298.2 358.47 504.58 120.24 504.58 147.1 297.36"/></g><g id="Layer_6" data-name="Layer 6"><path class="cls-5" d="M146.65,219.64,350.36,225c8.07,8.09,11.29,21.1,8.16,32.91-3.26,12.32-12.84,21-23.88,21.6,1.35,5,4.78,19.7-1,27.24-7.27,9.42-28.3,6.8-49-13.74L217.56,290c-13.17,21.95-35.4,26.3-47.27,15.77-11.24-10-10-30.44-9.88-32.19A25.88,25.88,0,0,1,143.65,262C136.66,250.76,137.56,233.29,146.65,219.64Z" transform="translate(5 3.08)"/><ellipse class="cls-2" cx="274.66" cy="221.78" rx="83.81" ry="87.11"/><path class="cls-6" d="M379.12,212.5l-29.94,15C344.94,245.8,333,258,320.35,257.91c-13-.12-21.2-13.21-22.41-15.21q-.7-4-1.39-8.06l-24,1.49-2.09,6.57c-1.8,3.08-9,14.6-20.67,16.36-13.66,2.06-27.91-10.07-34.22-30.41L185.85,209.3" transform="translate(5 3.08)"/><path class="cls-7" d="M233.85,218.7a43.37,43.37,0,0,0,31-12.2" transform="translate(5 3.08)"/><path class="cls-7" d="M301.25,204.76a33.74,33.74,0,0,0,11.15,9.37,28.2,28.2,0,0,0,16,3.17" transform="translate(5 3.08)"/><path class="cls-7" d="M242.31,232.09a30.62,30.62,0,0,0,23.2-4.23" transform="translate(5 3.08)"/><path class="cls-7" d="M304.42,226.85a23.75,23.75,0,0,0,9.24,4.54,19.91,19.91,0,0,0,11.53-.55" transform="translate(5 3.08)"/><path class="cls-5" d="M180.49,205.73c2,1,13.23,6,25.16,1,11.64-4.84,19.27-17.25,19-31.2-1.89,17.1,10.3,31.15,23.24,32.22,14.12,1.17,29.59-13.1,28-32-.84-9.92,10.73,25.09,27,32.56,12.65,5.82,28.92-1.58,42.37-10.42-7.77,18.3,1.45,38.33,16.65,44,16.3,6.08,37.9-4.95,42.23-25.95a41.24,41.24,0,0,0-1-79.37c2.61-15.15-2.94-29.71-13.23-35.62-14.34-8.24-39.07-.34-48.34,22.9.85-23.57-14.95-44.46-37.14-49.86-23.62-5.75-48.66,7.47-57.49,31C227.74,82.59,198,78.09,179.7,90.74c-17.24,11.89-18.23,34.66-18.32,37.65-23.48,0-41.69,17.13-42.74,36.12-.76,13.76,7.55,27.41,20.86,35.11-7.74,11.33-9.59,25.1-4.07,35.62,9.54,18.18,39.16,23,49.77,10.56C192.49,237.25,191,220.29,180.49,205.73Z" transform="translate(5 3.08)"/><path class="cls-7" d="M302.92,279.27c-.73,1.62-7.06-1.63-19.69-2-14.59-.42-22.22,3.46-22.93,1.74-.91-2.21,10.21-12.43,22.93-11.71C294.61,268,303.88,277.16,302.92,279.27Z" transform="translate(5 3.08)"/><path class="cls-8" d="M310.13,271.29,303,282.44l27,17.29a8.17,8.17,0,1,0,7.42,14.56c-1.1,7.86,2.48,13.59,5.52,13.92s7.36-4.16,8.43-11.37c4.53,3.29,9.53,3.36,11.21,1.43,1.82-2.09.86-7.88-4.49-11.93,6,.13,11.11-2.12,12-5.2,1.07-3.73-3.59-10.26-12.9-12.31a9.3,9.3,0,0,0-18.13-4.13Z" transform="translate(5 3.08)"/></g><polygon class="cls-9" points="5 542.5 967.31 5 967.31 542.5 5 542.5"/><g id="Layer_8" data-name="Layer 8"><path class="cls-2" d="M746.14,339c12.09,27,6.93,69.77-23.27,84.8-32.14,16-72.21-9.63-82.77-35.1-3.36-8.09-3.28-21.05-3.13-47,.12-21.34.26-32.09,3.91-36.39C656.67,286.82,726.23,294.66,746.14,339Z" transform="translate(5 3.08)"/><polygon class="cls-10" points="345.2 352.48 638.3 190.95 638.3 545.88 345.2 545.88 345.2 352.48"/><path class="cls-11" d="M804.48,511.62a92.54,92.54,0,0,1-4.91,29.82H624.21a92.6,92.6,0,1,1,180.27-29.82Z" transform="translate(5 3.08)"/><line class="cls-12" x1="674.05" y1="353.47" x2="656.05" y2="365.48"/><line class="cls-12" x1="699.55" y1="343.1" x2="721.79" y2="343.1"/><ellipse class="cls-13" cx="708.1" cy="388.89" rx="29.74" ry="19.76"/><path class="cls-14" d="M644.4,344.52a50.5,50.5,0,0,1,60.46-21.32" transform="translate(5 3.08)"/><path class="cls-15" d="M639.51,361q.21-11.13.59-22.5.25-7.8.58-15.46a25.62,25.62,0,0,1,.36-8.91,17.74,17.74,0,0,1,1.46-4.44c.47-.92,2.52-4.57,10.25-7.65a41.42,41.42,0,0,1,14-2.87A96.28,96.28,0,0,1,697,303a94.88,94.88,0,0,1,26.81,13.31v10.56L745,342.57a34.14,34.14,0,0,0-5.87-42.85,75.71,75.71,0,0,0-24.65-19c-27.86-13.3-55.05-4.55-61.83-2.15A27.28,27.28,0,0,0,638.73,288a27,27,0,0,0-5.34,12.72v57.71Z" transform="translate(5 3.08)"/><ellipse class="cls-16" cx="685.53" cy="356.78" rx="40.89" ry="4.18" transform="translate(-78.02 278.77) rotate(-21.47)"/><polygon class="cls-11" points="685.36 463.05 661.49 546.1 743.66 546.1 729.57 481.46 685.36 463.05"/><line class="cls-17" x1="5" y1="543.84" x2="967.31" y2="5"/></g></g><g id="Layer_3" data-name="Layer 3"><rect class="cls-18" x="5" y="5" width="962.31" height="538.84"/></g></svg>