<?xml version="1.0" encoding="UTF-8"?>
<svg id="Layer_15" data-name="Layer 15" xmlns="http://www.w3.org/2000/svg" viewBox="0 0 2005.06 788.12">
  <defs>
    <style>
      .cls-1 {
        fill: #32385e;
      }

      .cls-1, .cls-2 {
        stroke: #262262;
      }

      .cls-1, .cls-2, .cls-3, .cls-4 {
        stroke-miterlimit: 10;
      }

      .cls-2 {
        fill: none;
      }

      .cls-5 {
        fill: #141414;
        stroke-width: 0px;
      }

      .cls-3 {
        fill: #a97c50;
        stroke: #3c2415;
      }

      .cls-4 {
        fill: #bfb399;
        stroke: #877e6c;
      }
    </style>
  </defs>
  <circle class="cls-5" cx="447.75" cy="531.93" r="15.74"/>
  <polygon class="cls-4" points="465.26 536.47 481.59 544.42 473.43 561.78 465.26 536.47"/>
  <circle class="cls-4" cx="454.58" cy="556.34" r="23.33"/>
  <ellipse class="cls-3" cx="416.2" cy="579.25" rx="3.66" ry="8.7" transform="translate(-259.49 350.77) rotate(-35.62)"/>
  <polygon class="cls-1" points="436.99 571.66 417.44 579.67 417.44 588.42 454.58 585.07 477.91 599.56 513.81 602.13 503.78 583.96 481.5 583.96 472.17 571.66 436.99 571.66"/>
  <line class="cls-2" x1="454.58" y1="585.07" x2="472.17" y2="571.66"/>
  <ellipse class="cls-3" cx="511.92" cy="596.4" rx="7.39" ry="13.55" transform="translate(-251.56 409.73) rotate(-35.62)"/>
  <polygon class="cls-3" points="452.69 551.52 473.05 565.13 470.76 568.35 447.93 557.67 452.69 551.52"/>
  <circle class="cls-3" cx="474.89" cy="568.93" r="4.79"/>
  <polygon class="cls-4" points="441.95 538.76 459.77 550.27 450.86 561.78 438.23 550.27 441.95 538.76"/>
</svg>