<?xml version="1.0" encoding="UTF-8"?>
<svg xmlns="http://www.w3.org/2000/svg" viewBox="0 0 2005.06 788.12">
  <defs>
    <style>
      .cls-1 {
        fill: #fff283;
        stroke-width: 5px;
      }

      .cls-1, .cls-2, .cls-3, .cls-4, .cls-5 {
        stroke: #231f20;
        stroke-miterlimit: 10;
      }

      .cls-2 {
        fill: #100a20;
      }

      .cls-4 {
        fill: none;
        stroke-width: 10px;
      }

      .cls-6 {
        fill: #3a3242;
        stroke-width: 0px;
      }

      .cls-5 {
        fill: #262235;
      }
    </style>
  </defs>
  <g id="Layer_15" data-name="Layer 15">
    <g>
      <polyline class="cls-2" points="111.2 763.69 113.37 763.69 924.05 763.69 970.09 763.69 970.09 225.42 3.7 225.42 3.7 468.66 3.7 502.19 3.7 560.23 3.7 763.69 83.24 763.69 107.91 763.69"/>
      <g>
        <polygon class="cls-5" points="966.89 534.7 966.89 765.32 900.21 765.32 900.21 559.56 966.89 534.7"/>
        <polygon class="cls-5" points="966.89 480.13 966.89 485.67 941.4 481.68 941.4 492.98 939.78 492.29 882.88 467.91 826.61 471.1 826.44 474.75 826.21 479.89 815.58 710.85 814.96 724.33 814.2 740.78 513.43 575.31 515.01 555.32 518.63 509.48 545.27 501.43 545.27 460.64 592.54 464.99 592.54 436.12 570.03 429.86 580.16 416.36 629.67 415.06 691.57 441.07 691.57 418.47 746.71 414.98 788.35 433.63 778.22 412.55 810.86 411.47 966.89 480.13"/>
        <g>
          <polygon class="cls-5" points="966.89 483.64 966.89 499.96 871.22 483.36 826.21 479.89 803.67 478.15 803.5 478.14 790.02 477.1 790.02 462.91 875.9 465.61 966.89 483.64"/>
          <polygon class="cls-5" points="966.89 497.86 966.89 673.18 938.36 662.67 900.21 663.57 879.02 664.07 877.46 710.06 833.47 720.1 814.96 724.33 797.83 728.24 797.83 652.14 800.99 555.32 802.06 522.39 803.5 478.14 803.67 472.99 826.44 474.75 871.22 478.2 939.78 492.29 941.4 492.62 966.89 497.86"/>
        </g>
        <g>
          <polygon class="cls-3" points="614.71 448.87 614.71 472.99 637.22 483.24 637.22 455.34 614.71 448.87"/>
          <polygon class="cls-3" points="562.84 497.59 562.84 521.71 585.34 531.96 585.34 504.06 562.84 497.59"/>
          <polygon class="cls-1" points="662.87 562.75 662.87 586.87 685.38 597.12 685.38 569.22 662.87 562.75"/>
          <polygon class="cls-3" points="727.42 480.41 727.42 504.53 749.92 514.78 749.92 486.88 727.42 480.41"/>
        </g>
        <polygon class="cls-3" points="766 517.63 815.19 524.13 815.19 555.32 764.17 555.32 766 517.63"/>
      </g>
      <g>
        <polyline class="cls-5" points="108 765.32 110.17 765.32 109.95 764.01 108.02 752.43 107.9 751.68 107.16 747.21 79.35 579.77 63.75 576.22 .5 561.86 .5 765.32 80.04 765.32 104.71 765.32"/>
        <polyline class="cls-5" points="108 765.32 109.95 764.01 398.92 569.14 398.66 568.13 395.26 554.74 382.51 504.5 352.77 499.53 346.05 459.07 296.33 468.77 291.59 440.13 314.59 431.37 301.55 419.15 248.49 423.47 186.72 456.26 183 433.85 123.57 436.65 82.21 459.84 89.54 437.8 54.55 440.44 .5 470.29 .5 503.82 47.53 501.31 48.31 504.92 49.4 509.99 63.75 576.22 101.59 750.93 101.61 751.03 102.65 755.84 104.71 765.32"/>
        <g>
          <polygon class="cls-5" points="87.56 503.14 73.34 505.69 73.19 505.71 49.4 509.99 1.94 518.53 .5 518.93 .5 500.59 85.23 489.06 87.56 503.14"/>
          <polygon class="cls-5" points="120.55 752.98 109.04 751.8 107.9 751.68 101.61 751.03 101.46 751.01 32.57 743.96 23.34 698.55 .5 700.47 .5 513.6 1.1 513.42 48.31 504.92 72.32 500.6 73.34 505.69 108.02 677.53 118.36 739.73 119.28 745.29 120.55 752.98"/>
        </g>
        <g>
          <polygon class="cls-3" points="270.02 455.29 273.99 479.2 251.65 491.91 247.06 464.25 270.02 455.29"/>
          <polygon class="cls-3" points="333.39 497.71 337.36 521.62 315.03 534.33 310.44 506.67 333.39 497.71"/>
          <polygon class="cls-1" points="237.36 573.63 241.33 597.54 218.99 610.25 214.4 582.6 237.36 573.63"/>
          <polygon class="cls-3" points="154.93 499.32 158.9 523.23 136.56 535.94 131.97 508.28 154.93 499.32"/>
        </g>
      </g>
      <polygon class="cls-6" points="108 765.32 110.17 765.32 920.85 765.32 900.21 754.64 833.47 720.1 815.58 710.85 797.83 701.66 515.01 555.32 477.8 554.09 477.05 554.06 470.87 553.86 457.34 553.41 455.43 553.35 451.38 553.22 451.37 553.22 441.09 552.88 431.56 552.56 400.09 551.52 395.26 554.74 118.36 739.73 107.16 747.21 101.59 750.93 101.46 751.01 80.04 765.32 104.71 765.32 108 765.32"/>
      <line class="cls-4" x1="108" y1="765.32" x2="104.71" y2="765.32"/>
    </g>
  </g>
  <g id="Layer_10" data-name="Layer 10">
    <rect class="cls-4" x="5.73" y="226.48" width="962.31" height="538.84"/>
  </g>
</svg>