<?xml version="1.0" encoding="UTF-8"?>
<svg id="Layer_10" data-name="Layer 10" xmlns="http://www.w3.org/2000/svg" viewBox="0 0 3024.59 566.06">
  <defs>
    <style>
      .cls-1 {
        fill: #141414;
        stroke-width: 0px;
      }

      .cls-2 {
        fill: #a97c50;
        stroke: #3c2415;
      }

      .cls-2, .cls-3 {
        stroke-miterlimit: 10;
        stroke-width: 5px;
      }

      .cls-3 {
        fill: #bfb399;
        stroke: #877e6c;
      }
    </style>
  </defs>
  <ellipse class="cls-2" cx="1355.87" cy="254.45" rx="111.64" ry="127.05"/>
  <path class="cls-1" d="m1249.17,229.54l23.78-22.2c1.47-11.36,2.95-22.71,4.42-34.07,1.7-1.44,38.09-31.26,85.72-20.44,37.67,8.56,54.1,36.13,56.56,40.42l-21.21,27.51,31.81,38.52c21.21-11.76,42.42-23.51,63.63-35.27-2.04-10.78-12.15-56.66-60.09-86.32-48.5-30-116.42-31.45-173.21-3.79-2.82,1.71-32.9,20.69-32.29,53.05.44,23.47,16.73,38.88,20.89,42.59Z"/>
  <path class="cls-3" d="m1220.65,538.7c10.55-109.34,89.43-194.29,185.17-194.29s174.61,84.95,185.16,194.29"/>
</svg>